<svg xmlns="http://www.w3.org/2000/svg" xmlns:xlink="http://www.w3.org/1999/xlink" width="1306.891" height="521.209" viewBox="0 0 1306.891 521.209"><defs><style>.a{fill:url(#a);}.b{fill:url(#b);}.c{fill:url(#c);}.d{fill:url(#d);}.e{fill:url(#e);}.f{fill:url(#f);}.g{fill:url(#g);}.h{fill:url(#h);}.i{opacity:0.813;}.j,.k,.l,.m,.n,.o,.p,.q,.r,.s,.t,.u,.v,.w{stroke:#fff;mix-blend-mode:overlay;isolation:isolate;}.aw,.ay,.j,.k,.l,.m,.n,.o,.p,.q,.r,.s,.t,.u,.v,.w{stroke-miterlimit:10;}.j,.r,.w{stroke-width:1.28px;}.eh,.j,.m,.o,.q,.s,.t{opacity:0.2;}.j,.l,.p,.v{fill:url(#i);}.k,.m,.n,.o,.p{stroke-width:0.837px;}.ds,.k,.l,.n,.p,.r,.w{opacity:0.4;}.k{fill:url(#j);}.l{stroke-width:0.793px;}.m{fill:url(#l);}.n{fill:url(#m);}.o{fill:url(#n);}.q,.v{stroke-width:1.016px;}.q{fill:url(#p);}.r{fill:url(#q);}.s,.t,.u{stroke-width:2.044px;}.s{fill:url(#r);}.t{fill:url(#s);}.u{opacity:0.3;fill:url(#t);}.v{opacity:0.202;}.w{fill:url(#v);}.x{opacity:0.8;}.y{fill:url(#w);}.z{fill:url(#x);}.aa{fill:url(#y);}.ab{fill:url(#z);}.ac{fill:url(#aa);}.ad{fill:url(#ab);}.ae{fill:url(#ac);}.af{fill:url(#ad);}.ag{fill:url(#ae);}.ah{fill:url(#af);}.ai{fill:url(#ag);}.aj{fill:url(#ah);}.ak{fill:url(#ai);}.al{fill:url(#aj);}.am{fill:url(#ak);}.an{fill:#fffaeb;}.ao{fill:url(#al);}.ap{fill:url(#am);}.aq{fill:url(#an);}.ar{fill:url(#ao);}.as{fill:url(#ap);}.at{fill:url(#aq);}.au{fill:url(#ar);}.av{opacity:0.15;}.aw,.ay{fill:#266975;stroke:#21535f;}.aw{stroke-width:1.77px;}.ax{fill:#fff;font-size:17.076px;font-family:OpenSans, Open Sans;}.ay{stroke-width:2.387px;}.az{opacity:0.85;}.ba{fill:url(#as);}.bb{fill:url(#at);}.bc{fill:url(#au);}.bd{fill:url(#av);}.be{fill:url(#aw);}.bf{fill:url(#ax);}.bg{fill:url(#ay);}.bh{fill:url(#az);}.bi{fill:url(#ba);}.bj{fill:url(#bb);}.bk{fill:url(#bc);}.bl{fill:url(#bd);}.bm{fill:url(#be);}.bn{fill:url(#bf);}.bo{fill:url(#bg);}.bp{fill:url(#bh);}.bq{fill:url(#bi);}.br{fill:url(#bj);}.bs{fill:url(#bk);}.bt{fill:url(#bl);}.bu{opacity:0.95;}.bv{fill:url(#bm);}.bw{fill:url(#bn);}.bx{fill:url(#bo);}.by{fill:url(#bp);}.bz{fill:url(#bq);}.ca{fill:url(#br);}.cb{fill:url(#bs);}.cc{fill:url(#bt);}.cd{fill:url(#bu);}.ce{fill:url(#bv);}.cf{fill:url(#bw);}.cg{fill:url(#bx);}.ch{fill:url(#by);}.ci{fill:url(#bz);}.cj{fill:url(#ca);}.ck{fill:url(#cb);}.cl{fill:url(#cc);}.cm{fill:url(#cd);}.cn{fill:url(#ce);}.co{fill:url(#cf);}.cp{opacity:0.271;}.cq{fill:#f7f9f9;font-size:21px;font-family:OpenSans-Semibold, Open Sans;font-weight:600;letter-spacing:0.002em;}.cr{opacity:0.7;}.cs{fill:url(#cg);}.ct{fill:url(#ch);}.cu{fill:url(#ci);}.cv{fill:url(#cj);}.cw{fill:url(#ck);}.cx{fill:url(#cl);}.cy{fill:url(#cm);}.cz{fill:url(#cn);}.da{fill:url(#co);}.db{fill:url(#cp);}.dc{fill:url(#cq);}.dd{fill:url(#cr);}.de{fill:url(#cs);}.df{fill:url(#ct);}.dg{fill:url(#cu);}.dh{fill:url(#cv);}.di{fill:url(#cw);}.dj{fill:url(#cx);}.dk{fill:url(#cy);}.dl{fill:url(#cz);}.dm{fill:url(#da);}.dn{fill:url(#db);}.do{fill:url(#dc);}.dp{fill:url(#dd);}.dq{fill:url(#de);}.dr{clip-path:url(#dg);}.dt{fill:#2c877b;}.du{fill:#99c9c3;}.dv{fill:#d9fffa;}.dw{fill:#55c9ba;}.dx{fill:url(#dh);}.dy{fill:url(#di);}.dz{fill:url(#dj);}.ea{fill:url(#dk);}.eb{fill:url(#dl);}.ec{fill:url(#dm);}.ed{fill:url(#dn);}.ee{fill:url(#do);}.ef{fill:url(#dp);}.eg{clip-path:url(#dr);}.ei{clip-path:url(#dt);}.ej{clip-path:url(#dv);}.ek{fill:url(#dw);}.el{fill:url(#dx);}.em{fill:url(#dy);}.en{fill:url(#dz);}.eo{fill:url(#eb);}.ep{clip-path:url(#ed);}.eq{fill:url(#ee);}.er{fill:url(#ef);}.es{fill:url(#eg);}.et{fill:url(#eh);}.eu{fill:url(#ei);}.ev{fill:url(#ej);}.ew{fill:url(#ek);}.ex{fill:url(#el);}.ey{fill:url(#em);}.ez{clip-path:url(#eo);}.fa{fill:url(#ep);}.fb{fill:url(#eq);}.fc{fill:#2b1a0c;}.fd{clip-path:url(#es);}.fe{fill:url(#et);}.ff{fill:url(#eu);}.fg{fill:url(#ev);}.fh{fill:url(#ew);}.fi{fill:url(#ex);}.fj{fill:url(#ey);}.fk{fill:url(#ez);}.fl{fill:url(#fa);}.fm{fill:url(#fb);}.fn{fill:url(#fc);}.fo{fill:url(#fd);}.fp{fill:url(#fe);}.fq{fill:#b234b5;}.fr{fill:url(#ff);}.fs{fill:url(#fg);}.ft{fill:url(#fh);}.fu{fill:url(#fi);}.fv{fill:url(#fj);}.fw{fill:url(#fk);}.fx{fill:url(#fl);}.fy{fill:url(#fm);}.fz{fill:url(#fn);}.ga{fill:url(#fo);}.gb{clip-path:url(#fq);}.gc{fill:url(#fr);}.gd{fill:#156057;}.ge{fill:#76afa8;}</style><linearGradient id="a" x1="0.688" y1="-1.545" x2="1.067" y2="0.418" gradientUnits="objectBoundingBox"><stop offset="0" stop-color="#fbf78b"/><stop offset="1" stop-color="#eb6dff"/></linearGradient><linearGradient id="b" x1="1.438" y1="0.39" x2="1.31" y2="-0.384" gradientUnits="objectBoundingBox"><stop offset="0" stop-color="#6a7887"/><stop offset="1" stop-color="#444d56"/></linearGradient><linearGradient id="c" x1="1.702" y1="0.219" x2="2.606" y2="0.219" gradientUnits="objectBoundingBox"><stop offset="0" stop-color="#6a7887"/><stop offset="1" stop-color="#8495a8"/></linearGradient><linearGradient id="d" x1="0.312" y1="0.292" x2="0.915" y2="0.328" gradientUnits="objectBoundingBox"><stop offset="0" stop-color="#ad8dcc"/><stop offset="1" stop-color="#8a5ab8"/></linearGradient><linearGradient id="e" x1="0.142" y1="0.478" x2="1.542" y2="0.478" xlink:href="#c"/><linearGradient id="f" x1="1.748" y1="0.012" x2="1.644" y2="-0.512" xlink:href="#b"/><linearGradient id="g" x1="1.018" y1="0.247" x2="0.601" y2="0.193" gradientUnits="objectBoundingBox"><stop offset="0" stop-color="#5b2a8a"/><stop offset="1" stop-color="#3e1563"/></linearGradient><linearGradient id="h" x1="0.431" y1="-0.461" x2="0.246" y2="-1.231" gradientUnits="objectBoundingBox"><stop offset="0" stop-color="#ac4744"/><stop offset="1" stop-color="#872a28"/></linearGradient><radialGradient id="i" cx="0.392" cy="0.345" r="0.305" gradientUnits="objectBoundingBox"><stop offset="0" stop-color="#fff"/><stop offset="1" stop-color="#fff" stop-opacity="0"/></radialGradient><radialGradient id="j" cx="0.392" cy="0.345" r="0.305" gradientTransform="translate(0)" xlink:href="#i"/><radialGradient id="l" cx="0.392" cy="0.345" r="0.305" gradientTransform="translate(0)" xlink:href="#i"/><radialGradient id="m" cx="0.392" cy="0.345" r="0.305" gradientTransform="translate(0)" xlink:href="#i"/><radialGradient id="n" cx="0.392" cy="0.345" r="0.305" gradientTransform="translate(0)" xlink:href="#i"/><radialGradient id="p" cx="0.392" cy="0.345" r="0.305" gradientTransform="translate(0)" xlink:href="#i"/><radialGradient id="q" cx="0.392" cy="0.345" r="0.305" gradientTransform="translate(0)" xlink:href="#i"/><radialGradient id="r" cx="0.392" cy="0.345" r="0.305" gradientTransform="translate(0)" xlink:href="#i"/><radialGradient id="s" cx="0.392" cy="0.345" r="0.305" gradientTransform="translate(0)" xlink:href="#i"/><radialGradient id="t" cx="0.392" cy="0.345" r="0.305" gradientTransform="translate(0)" xlink:href="#i"/><radialGradient id="v" cx="0.392" cy="0.345" r="0.305" gradientTransform="translate(0)" xlink:href="#i"/><linearGradient id="w" x1="0.414" y1="1.046" x2="0.532" y2="0.407" gradientUnits="objectBoundingBox"><stop offset="0" stop-color="#1a7c2b"/><stop offset="1" stop-color="#0c591a"/></linearGradient><linearGradient id="x" x1="0.588" y1="0.5" x2="0.003" y2="0.5" gradientUnits="objectBoundingBox"><stop offset="0" stop-color="#59bd6a"/><stop offset="1" stop-color="#73d984"/></linearGradient><linearGradient id="y" x1="0.331" y1="1.006" x2="0.678" y2="0.122" xlink:href="#w"/><linearGradient id="z" x1="0.775" y1="0.839" x2="0.307" y2="0.269" xlink:href="#w"/><linearGradient id="aa" x1="0.498" y1="0.994" x2="0.502" y2="-0.094" gradientUnits="objectBoundingBox"><stop offset="0" stop-color="#66501b"/><stop offset="1" stop-color="#543f10"/></linearGradient><linearGradient id="ab" x1="0.542" y1="5.661" x2="0.501" y2="0.279" gradientUnits="objectBoundingBox"><stop offset="0" stop-color="#806422"/><stop offset="1" stop-color="#6e5315"/></linearGradient><linearGradient id="ac" x1="0.109" y1="0.158" x2="0.915" y2="0.921" gradientUnits="objectBoundingBox"><stop offset="0" stop-color="#1a7c2b"/><stop offset="1" stop-color="#3a9149"/></linearGradient><linearGradient id="ad" x1="0.036" y1="0.839" x2="0.969" y2="0.173" gradientUnits="objectBoundingBox"><stop offset="0" stop-color="#bda05e"/><stop offset="1" stop-color="#d9bc79"/></linearGradient><linearGradient id="ae" x1="0" y1="0.5" x2="1" y2="0.5" xlink:href="#ac"/><linearGradient id="af" y1="0.5" x2="1" y2="0.5" gradientUnits="objectBoundingBox"><stop offset="0" stop-color="#725a23"/><stop offset="1" stop-color="#93793e"/></linearGradient><linearGradient id="ag" x1="0.502" y1="1.02" x2="0.499" y2="0.093" xlink:href="#w"/><linearGradient id="ah" x1="0.917" y1="0.48" x2="0.039" y2="0.522" gradientUnits="objectBoundingBox"><stop offset="0" stop-color="#55aa64"/><stop offset="1" stop-color="#3a9149"/></linearGradient><linearGradient id="ai" x1="0.065" y1="0.566" x2="0.932" y2="0.435" xlink:href="#x"/><linearGradient id="aj" x1="0.511" y1="1.024" x2="0.491" y2="0.059" gradientUnits="objectBoundingBox"><stop offset="0" stop-color="#209634"/><stop offset="1" stop-color="#107321"/></linearGradient><linearGradient id="ak" x1="0.521" y1="0.954" x2="0.481" y2="0.083" xlink:href="#aj"/><linearGradient id="al" x1="0.037" y1="0.72" x2="0.962" y2="0.275" xlink:href="#x"/><linearGradient id="am" x1="0.002" y1="0.851" x2="0.975" y2="0.163" xlink:href="#ad"/><linearGradient id="an" x1="0.509" y1="0.913" x2="0.49" y2="0.009" xlink:href="#aa"/><linearGradient id="ao" x1="0.973" y1="0.105" x2="0.112" y2="0.942" xlink:href="#ac"/><linearGradient id="ap" x1="0.115" y1="0.969" x2="0.859" y2="0.087" xlink:href="#w"/><linearGradient id="aq" x1="0.397" y1="0.215" x2="0.577" y2="0.714" xlink:href="#x"/><linearGradient id="ar" x1="0.992" y1="0.485" x2="-0.072" y2="0.519" xlink:href="#x"/><linearGradient id="as" x1="0.108" y1="0.241" x2="0.616" y2="0.554" gradientUnits="objectBoundingBox"><stop offset="0" stop-color="#c3d4e3"/><stop offset="1" stop-color="#a7bbcc"/></linearGradient><linearGradient id="at" x1="0.88" y1="0.717" x2="0.231" y2="0.032" xlink:href="#c"/><linearGradient id="au" x1="0.265" y1="0.288" x2="0.96" y2="0.901" xlink:href="#c"/><linearGradient id="av" x1="0.764" y1="0.827" x2="0.341" y2="0.431" xlink:href="#b"/><linearGradient id="aw" x1="0.663" y1="0.992" x2="0.337" y2="0.372" xlink:href="#b"/><linearGradient id="ax" x1="0.223" y1="0.146" x2="0.879" y2="0.944" xlink:href="#c"/><linearGradient id="ay" x1="0.503" y1="0.995" x2="0.496" y2="0.202" xlink:href="#b"/><linearGradient id="az" x1="0.909" y1="0.496" x2="-0.012" y2="0.506" xlink:href="#as"/><linearGradient id="ba" x1="0.009" y1="0.509" x2="1.007" y2="0.509" xlink:href="#c"/><linearGradient id="bb" x1="0.981" y1="0.486" x2="0.035" y2="0.523" xlink:href="#as"/><linearGradient id="bc" x1="0.379" y1="5.587" x2="0.517" y2="0.197" xlink:href="#b"/><linearGradient id="bd" x1="1.032" y1="0.477" x2="0.088" y2="0.564" xlink:href="#as"/><linearGradient id="be" x1="1" y1="0.577" x2="0.148" y2="0.533" gradientUnits="objectBoundingBox"><stop offset="0" stop-color="#a2b0bf"/><stop offset="1" stop-color="#8495a8"/></linearGradient><linearGradient id="bf" x1="0.486" y1="0.894" x2="0.531" y2="-0.214" xlink:href="#b"/><linearGradient id="bg" x1="0.914" y1="0.089" x2="0.192" y2="0.909" xlink:href="#c"/><linearGradient id="bh" x1="-0.004" y1="0.514" x2="0.999" y2="0.514" xlink:href="#b"/><linearGradient id="bi" x1="0.371" y1="0.334" x2="0.657" y2="0.704" xlink:href="#as"/><linearGradient id="bj" x1="0.073" y1="0.817" x2="0.936" y2="0.185" xlink:href="#c"/><linearGradient id="bk" x1="0.727" y1="0.511" x2="0.224" y2="0.48" xlink:href="#b"/><linearGradient id="bl" x1="0.832" y1="0.061" x2="0.154" y2="0.861" xlink:href="#as"/><linearGradient id="bm" x1="0.347" y1="-0.253" x2="0.88" y2="0.077" xlink:href="#as"/><linearGradient id="bn" x1="1.189" y1="-0.743" x2="0.544" y2="-1.604" xlink:href="#c"/><linearGradient id="bo" x1="0.11" y1="0.121" x2="0.772" y2="0.834" xlink:href="#c"/><linearGradient id="bp" x1="0.636" y1="0.738" x2="0.202" y2="0.325" xlink:href="#b"/><linearGradient id="bq" x1="0.633" y1="1.078" x2="0.321" y2="0.482" xlink:href="#b"/><linearGradient id="br" x1="0.289" y1="0.295" x2="0.847" y2="1.127" xlink:href="#c"/><linearGradient id="bs" x1="0.446" y1="0.747" x2="0.438" y2="0.125" xlink:href="#b"/><linearGradient id="bt" x1="0.842" y1="0.362" x2="-0.065" y2="0.371" xlink:href="#as"/><linearGradient id="bu" x1="0.137" y1="0.508" x2="1.056" y2="0.508" xlink:href="#c"/><linearGradient id="bv" x1="1.024" y1="0.431" x2="0.104" y2="0.467" xlink:href="#as"/><linearGradient id="bw" x1="0.464" y1="4.067" x2="0.606" y2="0.501" xlink:href="#b"/><linearGradient id="bx" x1="1.198" y1="0.523" x2="0.306" y2="0.604" xlink:href="#as"/><linearGradient id="by" x1="1.181" y1="0.733" x2="0.418" y2="0.692" xlink:href="#be"/><linearGradient id="bz" x1="0.484" y1="0.77" x2="0.533" y2="-0.083" xlink:href="#b"/><linearGradient id="ca" x1="1.002" y1="-0.033" x2="0.101" y2="0.766" xlink:href="#c"/><linearGradient id="cb" x1="-0.204" y1="0.073" x2="0.859" y2="0.073" xlink:href="#b"/><linearGradient id="cc" x1="0.317" y1="0.215" x2="0.678" y2="0.562" xlink:href="#as"/><linearGradient id="cd" x1="-0.06" y1="0.271" x2="0.842" y2="-0.29" xlink:href="#c"/><linearGradient id="ce" x1="0.595" y1="0.198" x2="0.012" y2="0.17" xlink:href="#b"/><linearGradient id="cf" x1="0.345" y1="-0.448" x2="-0.475" y2="0.342" xlink:href="#as"/><linearGradient id="cg" x1="-3.815" y1="1.635" x2="-3.702" y2="0.944" xlink:href="#w"/><linearGradient id="ch" x1="-5.806" y1="1.142" x2="-6.337" y2="1.142" xlink:href="#x"/><linearGradient id="ci" x1="-5.338" y1="1.855" x2="-5.009" y2="0.893" xlink:href="#w"/><linearGradient id="cj" x1="0.732" y1="0.722" x2="0.224" y2="0.161" xlink:href="#w"/><linearGradient id="ck" x1="-0.525" y1="1.298" x2="-0.521" y2="-0.039" xlink:href="#aa"/><linearGradient id="cl" x1="1.025" y1="5.016" x2="0.984" y2="-0.337" xlink:href="#ab"/><linearGradient id="cm" x1="0.88" y1="0.028" x2="1.887" y2="0.703" xlink:href="#ac"/><linearGradient id="cn" x1="-1.916" y1="1.23" x2="-1.029" y2="0.309" xlink:href="#ad"/><linearGradient id="co" x1="-0.815" y1="0.507" x2="0.305" y2="0.507" xlink:href="#ac"/><linearGradient id="cp" x1="-0.77" y1="0.507" x2="0.301" y2="0.507" xlink:href="#af"/><linearGradient id="cq" x1="-0.196" y1="0.764" x2="-0.199" y2="-0.086" xlink:href="#w"/><linearGradient id="cr" x1="0.447" y1="0.331" x2="-0.543" y2="0.366" xlink:href="#ah"/><linearGradient id="cs" x1="-2.763" y1="0.553" x2="-1.868" y2="0.408" xlink:href="#x"/><linearGradient id="ct" x1="-4.011" y1="0.337" x2="-4.031" y2="-0.498" xlink:href="#aj"/><linearGradient id="cu" x1="-0.327" y1="0" x2="-0.367" y2="-0.752" xlink:href="#aj"/><linearGradient id="cv" x1="-2.289" y1="0.994" x2="-1.376" y2="0.44" xlink:href="#x"/><linearGradient id="cw" x1="-2.303" y1="1.349" x2="-1.375" y2="0.379" xlink:href="#ad"/><linearGradient id="cx" x1="-1.355" y1="1.516" x2="-1.373" y2="0.205" xlink:href="#aa"/><linearGradient id="cy" x1="-3.11" y1="0.176" x2="-3.755" y2="1.084" xlink:href="#ac"/><linearGradient id="cz" x1="-4.412" y1="1.884" x2="-3.709" y2="0.659" xlink:href="#w"/><linearGradient id="da" x1="-1.94" y1="0.309" x2="-1.791" y2="0.907" xlink:href="#x"/><linearGradient id="db" x1="-7.446" y1="1.375" x2="-8.407" y2="1.417" xlink:href="#x"/><linearGradient id="dc" x1="1.955" y1="-0.282" x2="2.931" y2="-0.282" gradientUnits="objectBoundingBox"><stop offset="0" stop-color="#214869"/><stop offset="1" stop-color="#3c688d"/></linearGradient><linearGradient id="dd" x1="0.436" y1="1.163" x2="1.013" y2="0.065" gradientUnits="objectBoundingBox"><stop offset="0" stop-color="#ad8dcc"/><stop offset="1" stop-color="#cbb3e3"/></linearGradient><linearGradient id="de" x1="1.042" y1="0.814" x2="0.848" y2="0.49" xlink:href="#g"/><clipPath id="dg"><path class="a" d="M1257.341,342.806l-2.866,28.362-8.512-.094-1.091,10.313-9.524.275-.975,8.178-14.933-1.991,20.353-41.317Z"/></clipPath><linearGradient id="dh" x1="0.554" y1="-1.22" x2="0.202" y2="-1.228" gradientUnits="objectBoundingBox"><stop offset="0" stop-color="#ba775a"/><stop offset="1" stop-color="#a15a3c"/></linearGradient><linearGradient id="di" x1="-0.484" y1="-1.23" x2="-0.406" y2="-0.647" gradientUnits="objectBoundingBox"><stop offset="0" stop-color="#f9c1fb"/><stop offset="1" stop-color="#f78bfb"/></linearGradient><linearGradient id="dj" x1="-1.407" y1="-1.865" x2="-1.426" y2="-2.54" gradientUnits="objectBoundingBox"><stop offset="0" stop-color="#ed64bf"/><stop offset="1" stop-color="#ca3c9a"/></linearGradient><linearGradient id="dk" x1="-0.955" y1="-0.722" x2="-1.466" y2="-0.746" gradientUnits="objectBoundingBox"><stop offset="0" stop-color="#dd7de1"/><stop offset="1" stop-color="#ba51be"/></linearGradient><linearGradient id="dl" x1="-0.424" y1="-0.468" x2="-0.333" y2="-0.015" xlink:href="#di"/><linearGradient id="dm" x1="-1.243" y1="-0.387" x2="-1.271" y2="-1.008" xlink:href="#dj"/><linearGradient id="dn" x1="-0.795" y1="-0.103" x2="-1.293" y2="-0.12" xlink:href="#dk"/><linearGradient id="do" x1="5.073" y1="1.165" x2="7.818" y2="-0.959" gradientUnits="objectBoundingBox"><stop offset="0" stop-color="#c3d4e3"/><stop offset="1" stop-color="#9cb1c3"/></linearGradient><linearGradient id="dp" x1="1.795" y1="0.686" x2="1.441" y2="-0.018" xlink:href="#b"/><clipPath id="dr"><path class="b" d="M1243.866,588.8,1181,579.915s-24.148-34.422-33.026-43.71l62.791.338S1240.46,578.9,1243.866,588.8Z"/></clipPath><clipPath id="dt"><path class="c" d="M1210.765,536.543s22.723,32.29,33.1,52.258c0,0,10.577-50.668,8.656-75.094,0,0-22.952-34.727-33.134-47.012Z"/></clipPath><clipPath id="dv"><path class="d" d="M1198.4,382.077l-54.435-11.721s30.333-54.776,30.285-55.155l-.047-.38,58.859,5.845Z"/></clipPath><linearGradient id="dw" x1="2.937" y1="0.673" x2="1.409" y2="-0.099" gradientUnits="objectBoundingBox"><stop offset="0" stop-color="#f78bfb"/><stop offset="1" stop-color="#d45cd8"/></linearGradient><linearGradient id="dx" x1="0.316" y1="0.178" x2="1.147" y2="0.264" xlink:href="#d"/><linearGradient id="dy" x1="2.847" y1="0.498" x2="1.463" y2="-0.369" xlink:href="#dw"/><linearGradient id="dz" x1="0.897" y1="-0.527" x2="0.27" y2="0.193" xlink:href="#d"/><linearGradient id="eb" x1="0.51" y1="-0.649" x2="0.535" y2="-0.113" gradientUnits="objectBoundingBox"><stop offset="0" stop-color="#b57153"/><stop offset="1" stop-color="#cc8a6d"/></linearGradient><clipPath id="ed"><path class="e" d="M1223.47,448.914s-36.794-64.436-116.314-129.039c0,0-5.1,105.172-7.812,125.248,0,0,50.082,32.852,111.887,102.462C1211.231,547.585,1223.062,499.534,1223.47,448.914Z"/></clipPath><linearGradient id="ee" x1="0.255" y1="0.933" x2="1.183" y2="0.644" xlink:href="#as"/><linearGradient id="ef" x1="2.603" y1="1.963" x2="2.859" y2="1.06" xlink:href="#as"/><linearGradient id="eg" x1="1.589" y1="1.865" x2="1.65" y2="1.055" xlink:href="#b"/><linearGradient id="eh" x1="1.139" y1="0.825" x2="0.308" y2="0.217" xlink:href="#b"/><linearGradient id="ei" x1="3.116" y1="4.083" x2="0.866" y2="1.88" xlink:href="#b"/><linearGradient id="ej" x1="1.132" y1="2.117" x2="2.025" y2="1.768" xlink:href="#as"/><linearGradient id="ek" x1="0.651" y1="1.13" x2="1.968" y2="1.13" xlink:href="#c"/><linearGradient id="el" x1="3.062" y1="0.829" x2="1.521" y2="0.128" xlink:href="#as"/><linearGradient id="em" x1="1.661" y1="0.309" x2="1.616" y2="0.732" xlink:href="#c"/><clipPath id="eo"><path class="f" d="M1249.165,558.76l-12.51-21.084s43.444,15.649,49.852,20.623l19.424,45.271s-44.881-21.039-60.031-25.288C1245.9,578.282,1248.831,561.727,1249.165,558.76Z"/></clipPath><linearGradient id="ep" x1="2.42" y1="-0.988" x2="1.371" y2="-1.033" xlink:href="#as"/><linearGradient id="eq" x1="3.242" y1="-0.944" x2="4.767" y2="-0.333" xlink:href="#c"/><clipPath id="es"><path class="g" d="M1198.4,382.077l17.435,18.463,35.068-63.081-17.841-16.793Z"/></clipPath><linearGradient id="et" x1="1.005" y1="0.704" x2="1.02" y2="-0.184" gradientUnits="objectBoundingBox"><stop offset="0" stop-color="#fbd5c4"/><stop offset="1" stop-color="#fbc0a5"/></linearGradient><linearGradient id="eu" x1="1.126" y1="0.187" x2="1.107" y2="-0.49" gradientUnits="objectBoundingBox"><stop offset="0" stop-color="#8fb2cf"/><stop offset="1" stop-color="#628aab"/></linearGradient><linearGradient id="ev" x1="1.075" y1="0.681" x2="1.153" y2="0.134" xlink:href="#dh"/><linearGradient id="ew" x1="1.83" y1="0.007" x2="1.998" y2="0.84" gradientUnits="objectBoundingBox"><stop offset="0" stop-color="#d69578"/><stop offset="1" stop-color="#fac4ac"/></linearGradient><linearGradient id="ex" x1="3.061" y1="0.291" x2="2.134" y2="0.18" gradientUnits="objectBoundingBox"><stop offset="0" stop-color="#d3a4d5"/><stop offset="1" stop-color="#d176d5"/></linearGradient><linearGradient id="ey" x1="1.968" y1="-0.116" x2="2.079" y2="0.773" gradientUnits="objectBoundingBox"><stop offset="0" stop-color="#f9c1fb"/><stop offset="1" stop-color="#faddfb"/></linearGradient><linearGradient id="ez" x1="1.511" y1="0.618" x2="1.436" y2="-0.158" gradientUnits="objectBoundingBox"><stop offset="0" stop-color="#d176d5"/><stop offset="1" stop-color="#af4cb2"/></linearGradient><linearGradient id="fa" x1="1.354" y1="-0.269" x2="1.369" y2="0.217" gradientUnits="objectBoundingBox"><stop offset="0" stop-color="#d3eafa"/><stop offset="1" stop-color="#84afcc"/></linearGradient><linearGradient id="fb" x1="1.121" y1="-0.317" x2="1.6" y2="0.141" xlink:href="#dc"/><linearGradient id="fc" x1="1.976" y1="0.114" x2="2.23" y2="-0.202" gradientUnits="objectBoundingBox"><stop offset="0" stop-color="#5e8bab"/><stop offset="1" stop-color="#84afcc"/></linearGradient><linearGradient id="fd" x1="0.027" y1="0.325" x2="0.608" y2="0.181" xlink:href="#et"/><linearGradient id="fe" x1="0.398" y1="-0.063" x2="0.562" y2="0.814" xlink:href="#a"/><linearGradient id="ff" x1="-0.019" y1="0.331" x2="0.706" y2="0.136" xlink:href="#di"/><linearGradient id="fg" x1="0.71" y1="0.134" x2="-0.071" y2="0.091" xlink:href="#dk"/><linearGradient id="fh" x1="0.475" y1="-0.482" x2="0.465" y2="-0.674" xlink:href="#dh"/><linearGradient id="fi" x1="0.732" y1="-0.763" x2="0.222" y2="0.308" xlink:href="#g"/><linearGradient id="fj" x1="0.77" y1="-2.69" x2="0.03" y2="-2.654" xlink:href="#dw"/><linearGradient id="fk" x1="0.081" y1="-0.872" x2="1.023" y2="-0.872" xlink:href="#d"/><linearGradient id="fl" x1="0.277" y1="-0.352" x2="0.488" y2="-0.549" xlink:href="#et"/><linearGradient id="fm" x1="-0.254" y1="-0.537" x2="0.368" y2="-0.666" gradientUnits="objectBoundingBox"><stop offset="0" stop-color="#ad8dcc"/><stop offset="1" stop-color="#c7ace0"/></linearGradient><linearGradient id="fn" x1="-1.048" y1="-0.945" x2="-0.253" y2="-1.012" xlink:href="#di"/><linearGradient id="fo" x1="-0.451" y1="-1.107" x2="0.498" y2="-1.264" xlink:href="#ew"/><clipPath id="fq"><path class="h" d="M1198.172,295.819l19.44-.29s-3.324,10.822-12.315,10.654C1197.609,306.039,1198.172,295.819,1198.172,295.819Z"/></clipPath><linearGradient id="fr" x1="0.3" y1="-1.955" x2="0.398" y2="-1.315" gradientUnits="objectBoundingBox"><stop offset="0" stop-color="#e6777e"/><stop offset="1" stop-color="#c1505a"/></linearGradient></defs><g transform="translate(-25.671 -571.223)"><g class="i" transform="translate(-12.852 508.345)"><circle class="j" cx="13.781" cy="13.781" r="13.781" transform="translate(447.772 468.222)"/><circle class="k" cx="9.007" cy="9.007" r="9.007" transform="translate(64.852 440.452)"/><circle class="l" cx="8.541" cy="8.541" r="8.541" transform="translate(392.517 313.305)"/><circle class="m" cx="9.007" cy="9.007" r="9.007" transform="translate(804.317 90.474)"/><circle class="n" cx="9.007" cy="9.007" r="9.007" transform="translate(198.414 498.918)"/><circle class="o" cx="9.007" cy="9.007" r="9.007" transform="translate(383.289 66.655)"/><circle class="p" cx="9.007" cy="9.007" r="9.007" transform="translate(104.659 133.986)"/><circle class="q" cx="10.934" cy="10.934" r="10.934" transform="translate(1305.297 91.835)"/><circle class="r" cx="13.781" cy="13.781" r="13.781" transform="translate(1317.063 343.708)"/><circle class="s" cx="22.004" cy="22.004" r="22.004" transform="translate(43.852 179.039)"/><circle class="t" cx="22.004" cy="22.004" r="22.004" transform="translate(910.493 84.655)"/><circle class="u" cx="22.004" cy="22.004" r="22.004" transform="translate(924.064 416.085)"/><circle class="v" cx="10.934" cy="10.934" r="10.934" transform="translate(1107.924 240.547)"/><circle class="w" cx="13.781" cy="13.781" r="13.781" transform="translate(87.446 410.65)"/></g><g transform="translate(-0.545 480.862)"><g class="x" transform="translate(13 -16)"><path class="y" d="M240.611,178.848l14.06,1.432,15.84-12.37-10.6-4.033Z"/><path class="z" d="M259.51,160.224l-20,15.616,1.1,3.008,19.3-14.97Z"/><path class="aa" d="M217.255,176.715l13.343,1.473,16.557-12.929-10.6-4.033Z"/><path class="ab" d="M336.949,160.213l-13.981,9.1-20.429-20.787,14.854-9.576Z"/><path class="ac" d="M318.456,146.476l-53.624,24.63-27.541-3.17,53.365-24.508Z"/><path class="ad" d="M325.894,136.478l-8.4,3.9-.62-5.12Z"/><path class="ae" d="M316.871,135.258l21.947,23-1.87,1.951-19.555-21.259Z"/><path class="af" d="M290.656,143.428l-1.707-11.705-52.8,25.849,1.138,10.364Z"/><path class="ag" d="M279.439,130.747l-4.024-24.386,46.7,7.316,3.78,22.8-9.023-1.219,1.585,11.218-27.8-3.048-1.707-11.705Z"/><path class="ah" d="M279.439,130.747l-1.5-9.068,4.3.57.554,4.169,4.755.614-.482-4.07,4.252.6,1.473,12.125,4.633.386,23.432-8.358,3.657.514,1.382,8.251-9.023-1.219,1.585,11.218-27.8-3.048-1.707-11.705Z"/><path class="ai" d="M311.831,139.973l11.136-6.015L307.2,132.17l-10.892,6.178Z"/><path class="aj" d="M307.2,132.17l-1.919-13.719L321,120.634l1.963,13.324Z"/><path class="ak" d="M307.2,132.17l-1.919-13.719-10.936,6.574,1.963,13.324Z"/><path class="al" d="M309.8,125.423l.244,2.976,2.845.244-.244-2.976Z"/><path class="am" d="M315.489,125.789l.244,2.976,2.845.244-.244-2.976Z"/><path class="an" d="M303.947,125.423l.488,3.586-4.146,2.023-.366-3.414Z"/><path d="M302.4,130l2.039-.995-.488-3.586-1.962,1.07Z"/><path class="ao" d="M275.415,106.361,222.5,132.942l3.414,23.289,53.527-25.483Z"/><path class="ap" d="M277.94,121.679l-9.321,4.525.667,3.959-32.563,15.663-.388-3.95-11.7,5.677,1.272,8.678,53.527-25.483Z"/><path class="aq" d="M279.439,130.747,225.912,156.23l10.242,1.341,52.8-25.849Z"/><path class="ar" d="M288.949,131.723l-13.534,30.848,2.525,1.626,11.644-28.125Z"/><path class="as" d="M275.415,162.571l-20.4,11.136,2.418,1.3L277.94,164.2Z"/><path class="at" d="M288.949,131.723l-19.412,9.5-14.526,32.48,20.4-11.136Z"/><path class="au" d="M236.154,157.572l-20,16.135,1.1,3.008,19.3-15.489Z"/></g><g class="av" transform="translate(-54 -2)"><path class="aw" d="M238.1,160.7l-50.586,10.291a1.644,1.644,0,0,1-1.939-1.283h0a3.825,3.825,0,0,0-4.512-2.986l-13.943,2.836a3.826,3.826,0,0,0-2.986,4.512h0a1.644,1.644,0,0,1-1.284,1.939l-3.753.763a5.464,5.464,0,0,1-6.445-4.266l-6.21-30.525a5.465,5.465,0,0,1,4.266-6.445l3.753-.764a1.644,1.644,0,0,0,1.284-1.939h0a3.826,3.826,0,0,1,2.986-4.511l13.943-2.837a3.826,3.826,0,0,1,4.512,2.987h0a1.645,1.645,0,0,0,1.939,1.283l31.84-6.478a24.6,24.6,0,0,1,29.005,19.2l2.4,11.779A5.466,5.466,0,0,1,238.1,160.7Z"/><text class="ax" transform="matrix(0.98, -0.199, 0.199, 0.98, 160.429, 157.714)"><tspan x="0" y="0">on start</tspan></text></g><g class="av" transform="translate(-79 -43)"><path class="ay" d="M315.515,294.05l-78.578-9.362A2.218,2.218,0,0,1,235,282.22h0a5.159,5.159,0,0,0-4.5-5.743l-19.047-2.311a5.158,5.158,0,0,0-5.743,4.5h0a2.216,2.216,0,0,1-2.468,1.933l-1.459-.177a11.066,11.066,0,0,1-9.652-12.318l4.17-34.361a11.065,11.065,0,0,1,12.318-9.652l1.458.177a2.219,2.219,0,0,0,2.469-1.934h0a5.159,5.159,0,0,1,5.743-4.5l19.046,2.311a5.159,5.159,0,0,1,4.5,5.743h0a2.217,2.217,0,0,0,1.934,2.468l78.577,9.363A11.065,11.065,0,0,1,332,250.037L327.833,284.4A11.067,11.067,0,0,1,315.515,294.05Z"/><text class="ax" transform="matrix(0.993, 0.12, -0.12, 0.993, 207.952, 256.15)"><tspan x="0" y="0">forward</tspan></text></g><g class="az" transform="translate(-101 4)"><path class="ba" d="M315.547,395.345s9.987.85,16.454,4.828l-10.194,12.592a21.6,21.6,0,0,0-9.523-6.192Z"/><path class="bb" d="M315.547,395.345l7.2-.919s7.214,1.114,10.984,3.144l-1.732,2.6A41.057,41.057,0,0,0,315.547,395.345Z"/><path class="bc" d="M375.427,470.421l.245-3.269s-8.986-6.059-11.768-7.38l-2.129,2.34S371.65,467.407,375.427,470.421Z"/><path class="bd" d="M350.057,474.256A80.574,80.574,0,0,1,367,480.422s5.852-7.032,8.424-10c0,0-8.631-6-13.652-8.309Z"/><path class="be" d="M391.984,447.141s4.8,8.73,6.083,12.835l21.011-.6s-7.383-19.532-10.728-24.7Z"/><path class="bf" d="M408.35,434.684s8.442,17.646,10.728,24.7l3.372-3.691s-6.469-17.031-10.54-23.355Z"/><path class="bg" d="M329.677,456.752s-10.757,15.234-14.316,23.979c0,0,25.62-.049,32.058-.229,0,0,14.375-15.662,23.972-24.316Z"/><path class="bh" d="M315.361,480.731s-7.917-19.26-9.861-28.5c0,0,10.714-21.181,15.63-27.834,0,0,4.047,22.06,8.547,32.357C329.677,456.752,316.93,475.086,315.361,480.731Z"/><path class="bi" d="M361.542,429.428s-5.887-35.5-5.756-54.82c0,0,21.976-3.143,61.715,1.553,0,0,.863,45.753-.956,54.083C416.545,430.244,383.907,431.032,361.542,429.428Z"/><path class="bj" d="M361.542,429.428s-5.887-35.5-5.756-54.82c0,0-26.4,21.917-38.469,41.856,0,0,4.539,28.316,11.056,45.529A344.243,344.243,0,0,1,361.542,429.428Z"/><path class="bk" d="M383.358,430.313l15.346-6.47,13.95-.1-14.8,6.694S387.457,430.417,383.358,430.313Z"/><path class="bl" d="M398.7,423.843l-1-15.2-15.336,6.369,1.085,15.232Z"/><path class="bm" d="M397.7,408.647l1,15.2,13.95-.1-.373-14.753Z"/><path class="bn" d="M361.542,429.428s-24.664,21.37-33.169,32.565c0,0,29.491-2.759,52.559-3.326,0,0,26.142-20.978,35.613-28.423C416.545,430.244,382.48,431.163,361.542,429.428Z"/><path class="an" d="M349.651,417.306s2.928-3.329,4.354-3.965c0,0,.759,6.075,1.3,7.055a37.52,37.52,0,0,1-3.73,3.6A32.622,32.622,0,0,1,349.651,417.306Z"/><path d="M351.768,415.718c.181,1.072.334,2.146.549,3.213.246,1.221.545,2.432.9,3.625,1.013-1.005,2.09-2.16,2.09-2.16-.543-.98-1.3-7.055-1.3-7.055a10.388,10.388,0,0,0-2.332,1.846C351.7,415.364,351.738,415.541,351.768,415.718Z"/><path class="bo" d="M352.555,429.492l1.429,6.027a118.538,118.538,0,0,0-9.137,22.958l-3.688-3.014S346.981,437.849,352.555,429.492Z"/><path class="bp" d="M341.159,455.463l-9.688,8.386,3.506,2.568,9.87-7.94Z"/><path class="bq" d="M331.472,463.848s1.538-9.937,3.281-16.388c0,0,9.535-13.349,17.8-17.968,0,0-8.608,15.577-11.4,25.971Z"/><path class="br" d="M315.833,452.89s-13.9,6.474-19.907,11.212l2.848,4.272s12.823-7.6,18.838-10.6Z"/><path class="bs" d="M317.612,457.777l-6.906,10.944,2.207,5.857a106.758,106.758,0,0,0-20.109,9.488,92.9,92.9,0,0,1,5.97-15.692s3.807-2.224,8.825-5.128S317.612,457.777,317.612,457.777Z"/><path class="bt" d="M295.926,464.1l2.848,4.272a97.694,97.694,0,0,0-5.97,15.692l-2.932-3.731A66.987,66.987,0,0,1,295.926,464.1Z"/></g><g class="bu" transform="translate(-66 -38)"><path class="bv" d="M114.447,320.4s14.808-.569,25.02,4.094L126.8,344.826a31.93,31.93,0,0,0-15.1-7.355Z"/><path class="bw" d="M114.447,320.4l10.4-2.658s10.786.325,16.687,2.618l-2.068,4.134A60.709,60.709,0,0,0,114.447,320.4Z"/><path class="bx" d="M215.948,419.682l-.234-4.841s-14.286-7.257-18.607-8.691l-2.7,3.821S209.858,415.946,215.948,419.682Z"/><path class="by" d="M179.42,429.918a119.154,119.154,0,0,1,25.985,5.969s7.309-11.381,10.543-16.2c0,0-13.754-7.231-21.541-9.711Z"/><path class="bz" d="M236.012,382.516s8.632,11.936,11.258,17.726l30.721-4.694s-14.382-27.317-20.229-34.285Z"/><path class="ca" d="M257.762,361.263s15.594,24.359,20.229,34.285l4.277-6.027s-12.587-23.815-19.709-32.353Z"/><path class="cb" d="M146.337,407.937s-13.015,24.308-16.649,37.785c0,0,37.583-4.726,47-6.159,0,0,18.247-25.594,30.756-40.035Z"/><path class="cc" d="M129.688,445.722S114.571,418.9,110.04,405.694c0,0,11.873-33.025,17.877-43.68,0,0,9.946,31.633,18.42,45.923C146.337,407.937,130.965,437.154,129.688,445.722Z"/><path class="cd" d="M188.127,362.057s-15.088-51.022-18.406-79.392c0,0,31.674-8.6,90.836-8.933,0,0,9.579,66.975,8.424,79.527C268.981,353.259,221.234,360.346,188.127,362.057Z"/><path class="ce" d="M188.127,362.057s-15.088-51.022-18.406-79.392c0,0-34.76,36.956-48.839,68.4,0,0,11.8,40.723,24.494,64.8C145.376,415.864,164.866,387.04,188.127,362.057Z"/><path class="cf" d="M220.3,359.391l21.341-12.282,20.45-2.681-20.495,12.511S226.331,358.8,220.3,359.391Z"/><path class="cg" d="M241.639,347.109l-4.232-22.114-21.345,12.132,4.359,22.153Z"/><path class="ch" d="M237.407,324.995l4.232,22.114,20.45-2.68-3.228-21.579Z"/><path class="ci" d="M188.127,362.057s-32.306,35.836-42.751,53.807c0,0,42.77-9.406,76.515-14.429,0,0,34.546-35.531,47.09-48.176C268.981,353.259,219.165,360.8,188.127,362.057Z"/><path class="an" d="M168.478,346.431s3.69-5.418,5.667-6.61c0,0,2.217,8.776,3.193,10.115,0,0-3.953,5.452-4.819,5.966A48.257,48.257,0,0,1,168.478,346.431Z"/><path d="M171.295,343.716c.46,1.54.88,3.088,1.389,4.614q.874,2.621,1.979,5.156c1.3-1.659,2.675-3.55,2.675-3.55-.976-1.339-3.193-10.115-3.193-10.115a15.344,15.344,0,0,0-3.086,3.133C171.138,343.208,171.219,343.461,171.295,343.716Z"/><path class="cj" d="M174.952,363.783l3.192,8.583a175.3,175.3,0,0,0-9.235,35.346l-5.959-3.752S168.291,377.057,174.952,363.783Z"/><path class="ck" d="M162.95,403.96l-12.691,14.064,5.611,3.132,13.039-13.443Z"/><path class="cl" d="M150.259,418.024s.453-14.86,1.837-24.643c0,0,11.566-21.319,22.856-29.6,0,0-9.8,24.42-12,40.177Z"/><path class="cm" d="M125.322,404.787S106.1,416.812,98.15,424.854l4.954,5.751s17.434-13.486,25.716-18.972Z"/><path class="cn" d="M128.82,411.633l-8.144,17.314,4.3,8.192c-14.642,6.92-27.78,17.576-27.78,17.576a137.424,137.424,0,0,1,5.907-24.11s5.182-3.954,12.018-9.127S128.82,411.633,128.82,411.633Z"/><path class="co" d="M98.15,424.854l4.954,5.751a144.578,144.578,0,0,0-5.907,24.11l-4.981-4.942S92.857,439.453,98.15,424.854Z"/></g></g><g transform="translate(-0.545 480.862)"><g class="cp" transform="translate(42 -9)"><text class="cq" transform="translate(1061.417 178.848)"><tspan x="0" y="0">for (i = 0; i &lt; 6; i++) {</tspan><tspan x="0" y="30" xml:space="preserve">    forward();</tspan><tspan x="0" y="60">}</tspan></text></g><g class="cr" transform="translate(-38 -13)"><path class="cs" d="M1110.573,138.2l-6.127,1.79-8.05-4.193,4.376-2.661Z"/><path class="ct" d="M1100.651,131.476l10.162,5.294-.24,1.426-9.8-5.064Z"/><path class="cu" d="M1120.77,135.331l-5.805,1.749-8.414-4.383,4.376-2.661Z"/><path class="cv" d="M1066.259,137.826l6.956,2.9,7.366-10.908-7.383-3.034Z"/><path class="cw" d="M1073.344,130.208l25.836,6.537,11.971-3.668-25.711-6.5Z"/><path class="cx" d="M1069.22,126.378l4.052,1.043-.145-2.325Z"/><path class="cy" d="M1073.127,125.1l-7.859,12.018.99.713,6.94-11.046Z"/><path class="cz" d="M1085.44,126.572l-.2-5.339,25.568,7.147.345,4.7Z"/><path class="da" d="M1089.381,120.02l-.214-11.16-20.139,7.082.193,10.436,3.907-1.282.217,5.112,12.1-3.635-.2-5.339Z"/><path class="db" d="M1089.381,120.02l-.079-4.15-1.862.606.1,1.9-2.062.663-.12-1.847-1.839.614.341,5.506-2.026.552-11.092-1.789-1.582.528.063,3.778,3.907-1.282.217,5.112,12.1-3.635-.2-5.339Z"/><path class="dc" d="M1075.753,126.776l-5.439-1.757,6.857-2.088,5.344,1.85Z"/><path class="dd" d="M1077.17,122.93l-.274-6.25-6.8,2.261.222,6.078Z"/><path class="de" d="M1077.17,122.93l-.274-6.25,5.4,2.022.222,6.078Z"/><path class="df" d="M1075.461,120.147l.136,1.342-1.243.342-.136-1.342Z"/><path class="dg" d="M1072.964,120.777l.136,1.342-1.244.342-.136-1.342Z"/><path class="an" d="M1078.06,119.667l.078,1.632,2.007.558-.118-1.546Z"/><path d="M1079.125,121.574l-.987-.275-.078-1.632.959.314Z"/><path class="dh" d="M1089.167,108.86l25.683,7.462.4,10.623-25.863-6.924Z"/><path class="di" d="M1089.3,115.87l4.511,1.244.029,1.813,15.747,4.284-.152-1.786,5.66,1.561.147,3.958-25.863-6.924Z"/><path class="dj" d="M1089.381,120.02l25.863,6.924-4.438,1.436-25.568-7.147Z"/><path class="dk" d="M1085.238,121.234l8.542,12.589-.988.929-7.479-11.535Z"/><path class="dl" d="M1093.78,133.823l9.975,3.271-.967.776-10-3.118Z"/><path class="dm" d="M1085.238,121.234l9.4,2.628,9.117,13.233-9.975-3.271Z"/><path class="dn" d="M1110.806,128.381l10.2,5.525-.24,1.426-9.843-5.295Z"/></g><g class="bu" transform="translate(23 8)"><path class="do" d="M1163.057,373.629l5.682,6.932,6.342-5.723Z"/><path class="dp" d="M1175.953,314.995s-29.589,12.472-55.046,20.415l9.1,9.184s22.81-5.571,38.685-14.659Z"/><path class="dq" d="M1130,344.594s33.884-9.811,38.685-14.659l-10.211,19.783s-11.182,4.949-15.488,5.61Z"/><path class="a" d="M1257.341,342.806l-2.866,28.362-8.512-.094-1.091,10.313-9.524.275-.975,8.178-14.933-1.991,20.353-41.317Z"/><g class="dr"><path class="ds" d="M1260.322,354.552l-13.741,5.07-18.63,34-12.613-2.3L1238.89,349.1l21.929-7.62Z"/></g><path class="dt" d="M1283.887,159.215l6.719,2.545,5.637,142.159-7.714-1.264Z"/><path class="du" d="M1288.7,215.626c1.36.078,2.71.238,4.057.427l-2.153-54.293-6.719-2.545,1.825,56.389A28.671,28.671,0,0,1,1288.7,215.626Z"/><path class="dv" d="M1283.887,159.215l-4.634,2.94,1.888,53.7,4.522-1.746Z"/><path class="dw" d="M1285.664,214.112l-4.522,1.746,3.02,92.513,4.368-5.715Z"/><path class="dx" d="M1240.483,304.7l-1.489,14.311,12.643-2.441Z"/><path class="dy" d="M1245.146,253l5.864-12.2,18.987,1-8.485,19.133Z"/><path class="dz" d="M1250.855,252.322l3.285-7.275,8.8.741-3.785,9.727Z"/><path class="ea" d="M1270,241.8l4.212,6.921-7.964,18.168-4.733-5.956Z"/><path class="eb" d="M1198.53,250.832l5.864-12.2,18.987,1-8.485,19.133Z"/><path class="ec" d="M1204.239,250.151l3.285-7.275,8.8.741-3.785,9.727Z"/><path class="ed" d="M1223.381,239.633l4.212,6.921-7.964,18.168-4.733-5.956Z"/><path class="ee" d="M1111.114,531.212l.771-7.343s11.2-3.493,14.388-3.278l-.1,7.944S1114.594,530.08,1111.114,531.212Z"/><path class="ef" d="M1184.576,569.757s-22.532-1.407-42.682.935c0,0-23.81-32.495-30.78-39.48,0,0,21.756-5.67,51.5-3.924Z"/><path class="b" d="M1243.866,588.8,1181,579.915s-24.148-34.422-33.026-43.71l62.791.338S1240.46,578.9,1243.866,588.8Z"/><g class="eg"><path class="eh" d="M1225.764,552.114s-59.874-7.079-78.013-9.231l-8.508-17.728,71.355,5.165Z"/></g><path class="c" d="M1210.765,536.543s22.723,32.29,33.1,52.258c0,0,10.577-50.668,8.656-75.094,0,0-22.952-34.727-33.134-47.012Z"/><g class="ei"><path class="eh" d="M1232.823,477.587s-1.554,41.514-12.949,79.566L1208.1,539.595l12.648-76.772Z"/></g><path class="d" d="M1198.4,382.077l-54.435-11.721s30.333-54.776,30.285-55.155l-.047-.38,58.859,5.845Z"/><g class="ej"><path class="ds" d="M1230.307,326.948l-18.629,3.779-1.849,32.778-10.007-1.96,2.2-29.684-7.411,1.562-3.432-1.933,2.119,27.759-11.129.494-.312-33.237-13.051-7.693,3.112-7.335,64.574,6.646Z"/></g><path class="ek" d="M1183.761,322.174l.316,33.108,6.173-.542-2.3-31.09Z"/><path class="el" d="M1197.555,322.132l-23.84-15.459-4.962,8.951,25.907,14.736Z"/><path class="em" d="M1204.726,325.743l-2.517,32.111,5.4.63,1.193-32.758Z"/><path class="en" d="M1197.555,322.132l30.4-12.691-2.013,14.7-31.281,6.217Z"/><path class="en" d="M1197.555,322.132l30.4-12.691-2.013,14.7-31.281,6.217Z"/><path class="eh" d="M1197.555,322.132l-23.84-15.459-4.962,8.951,25.907,14.736Z"/><path class="eh" d="M1197.555,322.132l30.4-12.691-2.013,14.7-31.281,6.217Z"/><path class="eo" d="M1179.084,315.372l-6.774-8.83,56.907,5.653,3.844,8.471Z"/><path class="e" d="M1223.47,448.914s-36.794-64.436-116.314-129.039c0,0-5.1,105.172-7.812,125.248,0,0,50.082,32.852,111.887,102.462C1211.231,547.585,1223.062,499.534,1223.47,448.914Z"/><g class="ep"><path class="ds" d="M1197.358,396.391l-34.742,15.3.976,29.69-34.329-3.011.177,17.342,33.691,26.592,30.541,1.217-2.093-62.444L1209.973,414Z"/></g><path class="eq" d="M1107.156,319.875s-90.2-20.86-143.3-1.837c0,0,5.608,111.841,7.269,122.578,0,0,99.329,5.218,128.224,4.507C1099.344,445.123,1108.1,334.711,1107.156,319.875Z"/><path class="er" d="M994.512,448.847l-20.7,44.929,7.319,5.476,22.177-46.405Z"/><path class="es" d="M981.128,499.252l43.964,3.867,18.651-26.978L1003.3,452.847Z"/><path class="et" d="M1099.344,445.123s-112.066-3.2-128.224-4.507c0,0,102.044,46.966,153.527,96.446l86.584,10.523S1147.831,476.326,1099.344,445.123Z"/><path class="eu" d="M1055.119,443.81s-38.872-23.756-52.083-29.492L966.5,419.229s34.877,15.277,50.537,23.325Z"/><path class="ev" d="M966.5,419.229s-2.945-24.606-2.593-32.821a213.856,213.856,0,0,1,38.169-5.425s2.037,27.186.961,33.335Z"/><path class="ew" d="M1002.075,380.983s37.051,16.3,53.362,30.742a201.852,201.852,0,0,1-.318,32.085s-39.631-23.661-52.083-29.492C1003.036,414.318,1003.507,393.086,1002.075,380.983Z"/><path class="ex" d="M1131.72,453.071l-2.617,11.045,27.117,64.112,7.734-1.684Z"/><path class="ey" d="M1131.72,453.071s35,28.815,42.488,37.431c0,0,9.93,27.426,11.131,33.287l-21.385,2.755Z"/><path class="f" d="M1249.165,558.76l-12.51-21.084s43.444,15.649,49.852,20.623l19.424,45.271s-44.881-21.039-60.031-25.288C1245.9,578.282,1248.831,561.727,1249.165,558.76Z"/><g class="ez"><path class="eh" d="M1249.165,558.76s11.56,21.288,15.611,31.416l-27.748-9.764Z"/></g><path class="fa" d="M1236.655,537.676l1.347-9.5s34.785,12.079,51.452,21.388l-2.947,8.732S1258.577,544.256,1236.655,537.676Z"/><path class="fb" d="M1289.454,549.567l-2.947,8.732,19.424,45.271,3.575-8.956S1297.728,562.108,1289.454,549.567Z"/><path class="an" d="M1117.4,409.778l-1.757,17.875s12.18,9.181,16.121,12.924a54.464,54.464,0,0,0,1.6-14.848A94.6,94.6,0,0,0,1117.4,409.778Z"/><path class="fc" d="M1124.258,434.258c.652-3.781,1.773-12.239,2.275-16.278a83.859,83.859,0,0,0-9.132-8.2l-1.757,17.875s4.294,3.236,8.607,6.649Z"/><path class="g" d="M1198.4,382.077l17.435,18.463,35.068-63.081-17.841-16.793Z"/><g class="fd"><path class="eh" d="M1241.262,364.857c-.587-14.086.688-29.632,2.713-44.332-1.006.248-2,.537-2.984.854a72.6,72.6,0,0,0-7.319,2.9c-.785.352-1.557.741-2.362,1.046-.584.222-1.171.436-1.754.66a32.34,32.34,0,0,0-4.168,1.879,269.679,269.679,0,0,0-1.729,43.069l9.636.42.42-7.376Z"/></g><path class="fe" d="M1171.088,376.2l-27.262,18.768,24.244,5.811,30.33-18.7Z"/><path class="ff" d="M1181.166,392.7l17.233-10.624-27.311-5.881-14.96,10.3S1180.968,392.626,1181.166,392.7Z"/><path class="fg" d="M1198.4,382.077l-30.33,18.7,3.295,42.677,14.567,15.278-2.348-44.338,30.47-15.738Z"/><path class="fh" d="M1143.826,394.964l3.492,40.57,24.046,7.917-3.295-42.677Z"/><path class="fi" d="M1185.931,458.73l-23.969-25.657.313,20.234,24.415,19.791Z"/><path class="fj" d="M1131.453,432.148l30.51.925.313,20.234-30.362-1.82Z"/><path class="fk" d="M1131.914,451.487l30.362,1.82,24.415,19.791-27.235-.9Z"/><path class="fl" d="M1159.829,384.006l-7.847,5.343,25.045,5.9,8.06-4.969Z"/><path class="fm" d="M1198.4,382.077,1181.166,392.7l11.5,17,21.383-11.045Z"/><path class="fn" d="M1185.088,390.283l-8.06,4.969,11.236,16.723,8.276-4.275Z"/><path class="fo" d="M1250.12,259.3l-.021.051-20.881,52.84-3.048-.3-45.349-4.506-8.51-.844,19.52-50.128.225-.577Z"/><path class="eh" d="M1226.17,311.892c-.611,3.408-1.187,7.012-1.706,10.8q2.47-.225,4.946-.389c2.989-.2,5.98-.368,8.969-.572,1.3-.089,2.592-.207,3.884-.342A491.131,491.131,0,0,1,1254.9,259.6l-4.8-.243-58.268-2.942-19.52,50.128,8.51.845a43.444,43.444,0,0,1,6.134-11.323l5.934.275,3.1-7.792,6.39.254,3.161-7.952,6.811.221,3.1-7.792,20.643,1.1S1230.338,288.568,1226.17,311.892Z"/><path class="an" d="M1233.3,278.084l-13.89-1.744-3.595,10.216,14.175,1.966Z"/><path d="M1227.052,277.339l-7.643-1-3.595,10.216,7.618,1.057Z"/><path class="fp" d="M1220.643,367.311c-2.262-55.916,13.937-95.787,13.937-95.787l-20.644-1.1-3.1,7.792-6.811-.221-3.161,7.952-6.392-.254-3.1,7.791-5.932-.274c-6.017,7.31-14.63,23.877-14.63,23.877l-9.1,3.7s.439-10.845,9.058-29.158,18.846-38.1,18.846-38.1l63.772,3.221s-17,59.649-15.131,104.493l-7.548-.883-.42,7.376Z"/><path class="fq" d="M1228.3,298.14l3.451,3.934,4.427.47,25.261,28.627,4.52-.379-28.266-31.523Z"/><path class="fq" d="M1231.1,268.126l2.728,3.267,4.427.47,1.515-3.274Z"/><path class="fq" d="M1197.807,258.041l-2.877,7.146-8.353-.22-12.222,30.871-9.013-1.177,3.792,4.164,7.966,1.061,12.113-30.819,7.945.349,3.376-8.109,32.47,1.417,1.165-3.311Z"/><path class="fr" d="M1184.554,248.3l72.319,3.147-19.184,47.821-9.393-1.129,11.526-29.666-8.718-.348,3.065-8.712-36.363-1.373-2.877,7.146-8.353-.22-12.222,30.871-9.013-1.177Z"/><path class="fs" d="M1256.873,251.448l-19.184,47.821,28.266,31.523,18.559-46.28Z"/><path class="ft" d="M1239.249,331.555l-1.109,18.791,3.746,3.331,35.525-13.753,30.661-38.189-23.293-4.389-22.225,26.579S1247.489,330.577,1239.249,331.555Z"/><path class="fu" d="M1239.249,331.555l-1.109,18.791,3.746,3.331,35.525-13.753,19.448-24.223-22.477-5.921-11.828,14.145S1247.489,330.577,1239.249,331.555Z"/><path class="eh" d="M1241.714,331.143c-.869.18-1.7.32-2.465.412l-1.109,18.791,2.9,2.582C1241.037,351.923,1241.428,333.8,1241.714,331.143Z"/><path class="fv" d="M1276.744,306.955l-5.739,6.863,22.977,5.8,5.519-7.212Z"/><path class="fw" d="M1240.965,316.865s14.849-1.609,22.4-6.568l-.807,13.628s-15.669,7.053-23.3,7.63Z"/><path class="eh" d="M1242.8,316.624c-1.151.166-1.837.241-1.837.241l-1.716,14.69a22.252,22.252,0,0,0,2.43-.34C1241.7,331.02,1242.515,318.445,1242.8,316.624Z"/><path class="fx" d="M1263.361,310.3l20.734-33.678.684,20.727-22.224,26.579Z"/><path class="fy" d="M1263.361,310.3l10.367-16.839.654,16.322-11.828,14.145Z"/><path class="fz" d="M1271.132,297.674l4.878-7.923.735,17.2-5.739,6.863Z"/><path class="ga" d="M1284.095,276.619l.684,20.727,23.294,4.389-.475-20.291Z"/><path class="h" d="M1198.172,295.819l19.44-.29s-3.324,10.822-12.315,10.654C1197.609,306.039,1198.172,295.819,1198.172,295.819Z"/><g class="gb"><path class="gc" d="M1199.565,305.858s2.443-4.1,6.229-4.214,6.863,4.723,6.863,4.723S1204.1,311.08,1199.565,305.858Z"/></g><path class="dt" d="M1289.263,304.182l7.06,1.578,3.9,117.221-7.26-2.554Z"/><path class="gd" d="M1292.96,420.426l-4.657,2.931,7.26,2.554,4.657-2.931Z"/><path class="dw" d="M1289.263,304.182l-4.44,4.709,3.48,114.466,4.657-2.931Z"/><path class="dv" d="M1285.479,208.412l11.011-5.149-2.2-36.673,5.319-2.751,2.973,44.1-8.989,3.98.474,6.578-8.16,3.008Z"/><path class="dw" d="M1285.479,208.412l11.011-5.149.7,7.067-3.6,1.594.474,6.578-8.16,3.008Z"/><path class="dw" d="M1272.48,213.791l8.478-3.559.424,12.988-5.444,1.7-.625-5.78-2.636.795Z"/><path class="dv" d="M1272.48,213.791l.522,6.372-5.137,2.278-1.726-43.356,4.627-2.844Z"/><path class="gd" d="M1285.9,221.511l7.386,2.6,7.947-2.648-7.173-2.959Z"/><path class="gd" d="M1281.382,223.22l-5.444,1.7,5.487,1.931Z"/><path class="ge" d="M1275.313,219.139l-7.447,3.3,5.487,1.931,2.433-.861Z"/><path class="gd" d="M1275.313,219.139l-2.31,1.024,2.546,1.162Z"/><path class="dt" d="M1301.237,221.462l-.618-6.744-7.029-2.793.474,6.578Z"/><path class="ge" d="M1293.589,211.924l8.989-3.98,7.529,2.649-9.489,4.125Z"/><path class="gd" d="M1293.589,211.924l3.6-1.594,7.257,2.764-3.827,1.623Z"/><path class="du" d="M1270.766,176.241l6.345,2.233,1.311,32.823-5.942,2.494Z"/><path class="du" d="M1299.605,163.839l2.973,44.1,7.529,2.649-3.016-44.12Z"/></g></g></g></svg>