<svg xmlns="http://www.w3.org/2000/svg" xmlns:xlink="http://www.w3.org/1999/xlink" width="742.334" height="466.85" viewBox="0 0 742.334 466.85"><defs><style>.a{fill:#fffaeb;}.b{fill:url(#a);}.c{fill:url(#b);}.d{fill:url(#c);}.e{fill:url(#d);}.f{fill:url(#e);}.g{fill:url(#f);}.h{fill:url(#g);}.i{fill:url(#h);}.j{fill:url(#i);}.k{fill:url(#j);}.l{opacity:0.7;}.m{fill:#2e5575;stroke:#25435f;}.du,.dv,.ft,.fu,.he,.m{stroke-miterlimit:10;}.hi,.n,.o{fill:#fff;}.n,.o{font-size:10px;font-family:Helvetica;}.o{opacity:0.3;}.p{opacity:0.85;}.q{fill:url(#k);}.r{fill:url(#l);}.s{fill:url(#m);}.t{fill:url(#n);}.u{fill:url(#o);}.v{fill:url(#p);}.w{fill:url(#q);}.x{fill:url(#r);}.y{fill:url(#s);}.z{fill:url(#t);}.aa{fill:url(#u);}.ab{fill:url(#v);}.ac{fill:url(#z);}.ad{fill:url(#aa);}.ae{fill:url(#ab);}.af{fill:url(#ad);}.ag{fill:url(#af);}.ah{fill:url(#ag);}.ai{fill:url(#ah);}.aj{fill:url(#al);}.ak{fill:url(#am);}.al{fill:url(#an);}.am{fill:url(#ar);}.an{fill:url(#as);}.ao{fill:url(#at);}.ap{fill:url(#av);}.aq{fill:url(#aw);}.ar{fill:url(#ax);}.as{fill:url(#ay);}.at{fill:url(#ba);}.au{fill:url(#bb);}.av{fill:url(#bc);}.aw{fill:url(#be);}.ax{fill:url(#bg);}.ay{fill:url(#bk);}.az{fill:url(#bl);}.ba{fill:url(#bm);}.bb{fill:url(#bn);}.bc{fill:url(#bo);}.bd{fill:url(#bp);}.be{fill:url(#bq);}.bf{fill:url(#br);}.bg{fill:url(#bs);}.bh{fill:url(#bt);}.bi{fill:url(#bu);}.bj{fill:url(#bv);}.bk{fill:url(#bw);}.bl{fill:url(#bx);}.bm{fill:url(#by);}.bn{fill:url(#bz);}.bo{fill:url(#ca);}.bp{fill:url(#cb);}.bq{fill:url(#cc);}.br{fill:url(#cd);}.bs{fill:url(#ce);}.bt{fill:url(#cf);}.bu{fill:url(#cg);}.bv{fill:url(#ch);}.bw{fill:url(#ci);}.bx{fill:url(#cj);}.by{fill:url(#cm);}.bz{fill:url(#cn);}.ca{fill:url(#co);}.cb{fill:url(#cp);}.cc{fill:url(#cq);}.cd{fill:url(#cr);}.ce{fill:url(#cs);}.cf{fill:url(#ct);}.cg{fill:url(#cu);}.ch{fill:url(#cy);}.ci{fill:url(#cz);}.cj{fill:url(#da);}.ck{fill:url(#de);}.cl{fill:url(#df);}.cm{fill:url(#dg);}.cn{fill:url(#dk);}.co{fill:url(#dl);}.cp{fill:url(#dm);}.cq{fill:url(#dq);}.cr{fill:url(#dr);}.cs{fill:url(#ds);}.ct{fill:url(#dw);}.cu{fill:url(#dx);}.cv{fill:url(#dy);}.cw{fill:url(#ec);}.cx{fill:url(#ed);}.cy{fill:url(#ee);}.cz{fill:url(#ef);}.da{fill:url(#eg);}.db{fill:url(#eh);}.dc{fill:url(#ei);}.dd{fill:url(#ej);}.de{fill:url(#ek);}.df{fill:url(#el);}.dg{fill:url(#em);}.dh{fill:url(#en);}.di{fill:url(#eo);}.dj{fill:url(#ep);}.dk{fill:url(#eq);}.dl{fill:url(#er);}.dm{fill:url(#es);}.dn{fill:url(#et);}.do{fill:url(#eu);}.dp{fill:url(#ev);}.dq{fill:url(#ew);}.dr{fill:url(#ex);}.ds{clip-path:url(#ey);}.dt{clip-path:url(#ez);}.du,.ft,.fu,.he{fill:none;}.du,.dv{stroke:#000;stroke-width:1.062px;}.dv{fill:url(#fa);}.dw{fill:url(#fb);}.dx{fill:url(#fc);}.dy{fill:url(#fd);}.dz{fill:url(#fe);}.ea{fill:url(#ff);}.eb{fill:url(#fg);}.ec{fill:url(#fh);}.ed{fill:url(#fi);}.ee{clip-path:url(#fk);}.ef{opacity:0.4;}.eg{fill:url(#fl);}.eh{fill:url(#fm);}.ei{fill:url(#fn);}.ej{fill:url(#fo);}.ek{clip-path:url(#fq);}.el{clip-path:url(#fs);}.em{fill:url(#ft);}.en{clip-path:url(#fv);}.eo{fill:url(#fw);}.ep{fill:url(#fx);}.eq{fill:url(#fy);}.er{clip-path:url(#ga);}.es{fill:url(#gb);}.et{fill:url(#gc);}.eu{fill:url(#gd);}.ev{fill:url(#ge);}.ew{fill:url(#gf);}.ex{fill:url(#gg);}.ey{fill:url(#gh);}.ez{fill:url(#gi);}.fa{fill:url(#gj);}.fb{fill:url(#gk);}.fc{fill:url(#gl);}.fd{fill:url(#gm);}.fe{fill:url(#gn);}.ff{clip-path:url(#gp);}.fg{clip-path:url(#gr);}.fh{clip-path:url(#gt);}.fi{clip-path:url(#gv);}.fj{opacity:0.6;}.fk{fill:url(#gw);}.fl{fill:url(#gx);}.fm{fill:url(#gy);}.fn{fill:url(#gz);}.fo{fill:url(#ha);}.fp{fill:url(#hb);}.fq{fill:url(#hc);}.fr{fill:url(#hd);}.fs{fill:url(#he);}.ft{stroke:#422812;stroke-width:1.33px;}.fu{stroke:#d6b67e;stroke-width:0.998px;}.fv{clip-path:url(#hg);}.fw{fill:url(#hh);}.fx{clip-path:url(#hi);}.fy{clip-path:url(#hj);}.fz{fill:#a5bf5e;}.ga{fill:url(#hk);}.gb{fill:url(#hl);}.gc{fill:#779422;}.gd{fill:url(#hm);}.ge{fill:url(#hn);}.gf{fill:url(#ho);}.gg{fill:url(#hp);}.gh{fill:url(#hq);}.gi{fill:url(#hr);}.gj{fill:url(#hs);}.gk{fill:url(#ht);}.gl{fill:url(#hu);}.gm{fill:url(#hv);}.gn{fill:url(#hw);}.go{fill:url(#hx);}.gp{fill:url(#hy);}.gq{fill:url(#hz);}.gr{fill:url(#ia);}.gs{fill:url(#ib);}.gt{fill:url(#ic);}.gu{fill:url(#id);}.gv{fill:url(#ie);}.gw{fill:url(#if);}.gx{fill:url(#ig);}.gy{clip-path:url(#ih);}.gz{fill:url(#ii);}.ha{fill:url(#ij);}.hb{clip-path:url(#ik);}.hc{fill:url(#il);}.hd{fill:url(#im);}.he{stroke:#7d5b3d;stroke-width:1.05px;}.hf{fill:url(#in);}.hg{fill:url(#io);}.hh{opacity:0.5;}</style><linearGradient id="a" x1="28.935" y1="-0.675" x2="29.263" y2="0.092" gradientUnits="objectBoundingBox"><stop offset="0" stop-color="#b58353"/><stop offset="1" stop-color="#bf9267"/></linearGradient><linearGradient id="b" x1="22.393" y1="0.821" x2="22.322" y2="-0.11" gradientUnits="objectBoundingBox"><stop offset="0" stop-color="#bde1ed"/><stop offset="1" stop-color="#73acbf"/></linearGradient><linearGradient id="c" x1="27.01" y1="-0.03" x2="26.328" y2="0.724" gradientUnits="objectBoundingBox"><stop offset="0" stop-color="#3b6e7f"/><stop offset="1" stop-color="#5994a8"/></linearGradient><linearGradient id="d" x1="20.415" y1="0.797" x2="19.926" y2="-0.103" xlink:href="#b"/><linearGradient id="e" x1="13.317" y1="0.32" x2="12.435" y2="0.395" gradientUnits="objectBoundingBox"><stop offset="0" stop-color="#5962b8"/><stop offset="1" stop-color="#3e479f"/></linearGradient><linearGradient id="f" x1="12.726" y1="0.175" x2="13.74" y2="0.175" gradientUnits="objectBoundingBox"><stop offset="0" stop-color="#23296e"/><stop offset="1" stop-color="#0e123d"/></linearGradient><linearGradient id="g" x1="5.801" y1="0.549" x2="6.38" y2="-0.248" gradientUnits="objectBoundingBox"><stop offset="0" stop-color="#3e479f"/><stop offset="1" stop-color="#2c358a"/></linearGradient><linearGradient id="h" x1="10.979" y1="0.388" x2="11.941" y2="0.303" xlink:href="#a"/><linearGradient id="i" x1="14.243" y1="0.355" x2="13.377" y2="0.371" gradientUnits="objectBoundingBox"><stop offset="0" stop-color="#694424"/><stop offset="1" stop-color="#805734"/></linearGradient><linearGradient id="j" x1="42.194" y1="-0.19" x2="42.185" y2="-1.019" gradientUnits="objectBoundingBox"><stop offset="0" stop-color="#ac4744"/><stop offset="1" stop-color="#872a28"/></linearGradient><linearGradient id="k" x1="0.498" y1="0.989" x2="0.503" y2="-0.042" gradientUnits="objectBoundingBox"><stop offset="0" stop-color="#39a157"/><stop offset="1" stop-color="#288643"/></linearGradient><linearGradient id="l" x1="-0.006" y1="0.506" x2="0.991" y2="0.494" gradientUnits="objectBoundingBox"><stop offset="0" stop-color="#825f47"/><stop offset="1" stop-color="#714f38"/></linearGradient><linearGradient id="m" x1="-0.024" y1="0.488" x2="1.001" y2="0.511" gradientUnits="objectBoundingBox"><stop offset="0" stop-color="#5b3a22"/><stop offset="1" stop-color="#4a260c"/></linearGradient><linearGradient id="n" x1="1.733" y1="0.724" x2="0.044" y2="0.319" gradientUnits="objectBoundingBox"><stop offset="0" stop-color="#2e8146"/><stop offset="1" stop-color="#025b1c"/></linearGradient><linearGradient id="o" x1="0.042" y1="0.514" x2="0.954" y2="0.438" xlink:href="#n"/><linearGradient id="p" x1="0.89" y1="0.512" x2="-1.119" y2="0.253" xlink:href="#n"/><linearGradient id="q" x1="447.217" y1="0.724" x2="445.528" y2="0.319" xlink:href="#n"/><linearGradient id="r" x1="209.371" y1="0.514" x2="210.283" y2="0.438" xlink:href="#n"/><linearGradient id="s" x1="574.982" y1="0.512" x2="572.972" y2="0.253" xlink:href="#n"/><linearGradient id="t" x1="427.902" y1="0.724" x2="426.212" y2="0.319" xlink:href="#n"/><linearGradient id="u" x1="200.304" y1="0.514" x2="201.216" y2="0.438" xlink:href="#n"/><linearGradient id="v" x1="550.171" y1="0.512" x2="548.162" y2="0.253" xlink:href="#n"/><linearGradient id="z" x1="0.941" y1="0.503" x2="0.015" y2="0.497" gradientUnits="objectBoundingBox"><stop offset="0" stop-color="#593c14"/><stop offset="1" stop-color="#67471b"/></linearGradient><linearGradient id="aa" x1="0.995" y1="0.499" x2="0.034" y2="0.501" gradientUnits="objectBoundingBox"><stop offset="0" stop-color="#8d642c"/><stop offset="1" stop-color="#a67736"/></linearGradient><linearGradient id="ab" x1="1.005" y1="0.5" x2="0.023" y2="0.5" gradientUnits="objectBoundingBox"><stop offset="0" stop-color="#0b4e00"/><stop offset="1" stop-color="#16620a"/></linearGradient><linearGradient id="ad" x1="1.005" y1="0.5" x2="0.023" y2="0.5" gradientUnits="objectBoundingBox"><stop offset="0" stop-color="#16620a"/><stop offset="1" stop-color="#2e7015"/></linearGradient><linearGradient id="af" x1="0.46" y1="1.008" x2="0.516" y2="0.284" gradientUnits="objectBoundingBox"><stop offset="0" stop-color="#3c791c"/><stop offset="1" stop-color="#5c8e2b"/></linearGradient><linearGradient id="ag" x1="0.465" y1="0.955" x2="0.527" y2="0.119" xlink:href="#af"/><linearGradient id="ah" x1="0.466" y1="0.943" x2="0.526" y2="0.125" xlink:href="#af"/><linearGradient id="al" x1="393.616" y1="0.724" x2="391.926" y2="0.319" xlink:href="#n"/><linearGradient id="am" x1="184.222" y1="0.514" x2="185.134" y2="0.438" xlink:href="#n"/><linearGradient id="an" x1="506.17" y1="0.512" x2="504.161" y2="0.253" xlink:href="#n"/><linearGradient id="ar" x1="403.206" y1="0.724" x2="401.517" y2="0.319" xlink:href="#n"/><linearGradient id="as" x1="188.719" y1="0.514" x2="189.631" y2="0.438" xlink:href="#n"/><linearGradient id="at" x1="518.469" y1="0.512" x2="516.46" y2="0.253" xlink:href="#n"/><linearGradient id="av" x1="0" y1="0.508" x2="0.985" y2="0.492" xlink:href="#l"/><linearGradient id="aw" x1="-0.013" y1="0.484" x2="0.99" y2="0.515" xlink:href="#m"/><linearGradient id="ax" x1="0.914" y1="0.504" x2="0.045" y2="0.496" xlink:href="#z"/><linearGradient id="ay" x1="0.872" y1="0.513" x2="0.091" y2="0.485" xlink:href="#z"/><linearGradient id="ba" x1="0.952" y1="0.498" x2="0.065" y2="0.502" xlink:href="#aa"/><linearGradient id="bb" x1="0.465" y1="0.954" x2="0.527" y2="0.134" gradientUnits="objectBoundingBox"><stop offset="0" stop-color="#356a19"/><stop offset="1" stop-color="#537f27"/></linearGradient><linearGradient id="bc" x1="1.005" y1="0.5" x2="0.023" y2="0.5" gradientUnits="objectBoundingBox"><stop offset="0" stop-color="#135308"/><stop offset="1" stop-color="#286112"/></linearGradient><linearGradient id="be" x1="1.005" y1="0.5" x2="0.023" y2="0.5" gradientUnits="objectBoundingBox"><stop offset="0" stop-color="#093f00"/><stop offset="1" stop-color="#135308"/></linearGradient><linearGradient id="bg" x1="0.465" y1="0.96" x2="0.527" y2="0.128" xlink:href="#bb"/><linearGradient id="bk" x1="563.385" y1="0.724" x2="561.696" y2="0.319" xlink:href="#n"/><linearGradient id="bl" x1="263.871" y1="0.514" x2="264.783" y2="0.438" xlink:href="#n"/><linearGradient id="bm" x1="724.119" y1="0.512" x2="722.11" y2="0.253" xlink:href="#n"/><linearGradient id="bn" x1="553.639" y1="0.724" x2="551.95" y2="0.319" xlink:href="#n"/><linearGradient id="bo" x1="259.298" y1="0.514" x2="260.21" y2="0.438" xlink:href="#n"/><linearGradient id="bp" x1="711.607" y1="0.512" x2="709.598" y2="0.253" xlink:href="#n"/><linearGradient id="bq" x1="15.26" y1="0.989" x2="15.265" y2="-0.042" xlink:href="#k"/><linearGradient id="br" x1="31.606" y1="0.505" x2="32.615" y2="0.495" xlink:href="#l"/><linearGradient id="bs" x1="27.597" y1="0.49" x2="28.641" y2="0.509" xlink:href="#m"/><linearGradient id="bt" x1="105.199" y1="0.504" x2="104.33" y2="0.496" xlink:href="#z"/><linearGradient id="bu" x1="106.92" y1="0.513" x2="106.14" y2="0.485" xlink:href="#z"/><linearGradient id="bv" x1="103.431" y1="0.504" x2="102.561" y2="0.496" xlink:href="#z"/><linearGradient id="bw" x1="60.573" y1="0.498" x2="59.686" y2="0.502" xlink:href="#aa"/><linearGradient id="bx" x1="17.093" y1="0.954" x2="17.155" y2="0.134" xlink:href="#bb"/><linearGradient id="by" x1="35.748" y1="0.5" x2="34.766" y2="0.5" xlink:href="#bc"/><linearGradient id="bz" x1="35.64" y1="0.5" x2="34.658" y2="0.5" xlink:href="#bc"/><linearGradient id="ca" x1="32.842" y1="0.5" x2="31.86" y2="0.5" xlink:href="#be"/><linearGradient id="cb" x1="33.86" y1="0.5" x2="32.878" y2="0.5" xlink:href="#be"/><linearGradient id="cc" x1="17.34" y1="0.96" x2="17.402" y2="0.128" xlink:href="#bb"/><linearGradient id="cd" x1="206.229" y1="0.724" x2="204.54" y2="0.319" xlink:href="#n"/><linearGradient id="ce" x1="96.306" y1="0.514" x2="97.218" y2="0.438" xlink:href="#n"/><linearGradient id="cf" x1="265.612" y1="0.512" x2="263.603" y2="0.253" xlink:href="#n"/><linearGradient id="cg" x1="852.152" y1="0.724" x2="850.463" y2="0.319" xlink:href="#n"/><linearGradient id="ch" x1="399.034" y1="0.514" x2="399.946" y2="0.438" xlink:href="#n"/><linearGradient id="ci" x1="1092.57" y1="0.512" x2="1090.56" y2="0.253" xlink:href="#n"/><linearGradient id="cj" x1="852.198" y1="0.724" x2="850.509" y2="0.319" xlink:href="#n"/><linearGradient id="cm" x1="4.653" y1="0.513" x2="5.625" y2="0.488" xlink:href="#l"/><linearGradient id="cn" x1="2.407" y1="0.474" x2="3.389" y2="0.525" xlink:href="#m"/><linearGradient id="co" x1="2.049" y1="0.513" x2="3.021" y2="0.488" xlink:href="#l"/><linearGradient id="cp" x1="-0.028" y1="0.474" x2="0.954" y2="0.525" xlink:href="#m"/><linearGradient id="cq" x1="6.047" y1="0.513" x2="7.019" y2="0.488" xlink:href="#l"/><linearGradient id="cr" x1="12.882" y1="0.489" x2="13.912" y2="0.511" xlink:href="#m"/><linearGradient id="cs" x1="1.269" y1="1.032" x2="1.272" y2="-0.089" xlink:href="#k"/><linearGradient id="ct" x1="7.456" y1="0.513" x2="8.429" y2="0.488" xlink:href="#l"/><linearGradient id="cu" x1="16.772" y1="0.489" x2="17.801" y2="0.511" xlink:href="#m"/><linearGradient id="cy" x1="136.69" y1="0.724" x2="135.001" y2="0.319" xlink:href="#n"/><linearGradient id="cz" x1="63.682" y1="0.514" x2="64.594" y2="0.438" xlink:href="#n"/><linearGradient id="da" x1="176.344" y1="0.512" x2="174.335" y2="0.253" xlink:href="#n"/><linearGradient id="de" x1="146.271" y1="0.724" x2="144.582" y2="0.319" xlink:href="#n"/><linearGradient id="df" x1="68.178" y1="0.514" x2="69.09" y2="0.438" xlink:href="#n"/><linearGradient id="dg" x1="188.643" y1="0.512" x2="186.634" y2="0.253" xlink:href="#n"/><linearGradient id="dk" x1="199.284" y1="0.724" x2="197.595" y2="0.319" xlink:href="#n"/><linearGradient id="dl" x1="93.048" y1="0.514" x2="93.96" y2="0.438" xlink:href="#n"/><linearGradient id="dm" x1="256.7" y1="0.512" x2="254.691" y2="0.253" xlink:href="#n"/><linearGradient id="dq" x1="208.864" y1="0.724" x2="207.175" y2="0.319" xlink:href="#n"/><linearGradient id="dr" x1="97.544" y1="0.514" x2="98.456" y2="0.438" xlink:href="#n"/><linearGradient id="ds" x1="268.996" y1="0.512" x2="266.986" y2="0.253" xlink:href="#n"/><linearGradient id="dw" x1="189.098" y1="0.724" x2="187.409" y2="0.319" xlink:href="#n"/><linearGradient id="dx" x1="88.271" y1="0.514" x2="89.182" y2="0.438" xlink:href="#n"/><linearGradient id="dy" x1="243.622" y1="0.512" x2="241.612" y2="0.253" xlink:href="#n"/><linearGradient id="ec" x1="198.679" y1="0.724" x2="196.99" y2="0.319" xlink:href="#n"/><linearGradient id="ed" x1="92.765" y1="0.514" x2="93.677" y2="0.438" xlink:href="#n"/><linearGradient id="ee" x1="255.921" y1="0.512" x2="253.911" y2="0.253" xlink:href="#n"/><linearGradient id="ef" x1="7.172" y1="2.077" x2="6.678" y2="2.032" gradientUnits="objectBoundingBox"><stop offset="0" stop-color="#292929"/><stop offset="1" stop-color="#4a4a4a"/></linearGradient><linearGradient id="eg" x1="1.652" y1="1.217" x2="0.723" y2="1.142" gradientUnits="objectBoundingBox"><stop offset="0" stop-color="#b0b0b0"/><stop offset="1" stop-color="#cfcfcf"/></linearGradient><linearGradient id="eh" x1="2.086" y1="0.723" x2="1.138" y2="0.755" gradientUnits="objectBoundingBox"><stop offset="0" stop-color="#787878"/><stop offset="1" stop-color="#a1a1a1"/></linearGradient><linearGradient id="ei" x1="3.462" y1="1.203" x2="2.587" y2="1.18" xlink:href="#ef"/><linearGradient id="ej" x1="2.879" y1="1.926" x2="3" y2="1.136" gradientUnits="objectBoundingBox"><stop offset="0" stop-color="#0d0d0d"/><stop offset="1" stop-color="#212121"/></linearGradient><linearGradient id="ek" x1="1.767" y1="0.696" x2="2.917" y2="0.696" gradientUnits="objectBoundingBox"><stop offset="0" stop-color="#fff"/><stop offset="1" stop-color="#dedede"/></linearGradient><linearGradient id="el" x1="2.771" y1="0.951" x2="1.165" y2="0.725" xlink:href="#ef"/><linearGradient id="em" x1="4.752" y1="0.505" x2="3.382" y2="1.122" xlink:href="#ef"/><linearGradient id="en" x1="2.255" y1="0.578" x2="1.925" y2="1.414" gradientUnits="objectBoundingBox"><stop offset="0" stop-color="#4a4a4a"/><stop offset="1" stop-color="#707070"/></linearGradient><linearGradient id="eo" x1="2.004" y1="1.177" x2="1.562" y2="2.081" xlink:href="#en"/><linearGradient id="ep" x1="2.827" y1="0.947" x2="1.985" y2="1.443" xlink:href="#ef"/><linearGradient id="eq" x1="5.388" y1="1.247" x2="3.407" y2="3.242" xlink:href="#ef"/><linearGradient id="er" x1="4.944" y1="1.26" x2="2.659" y2="1.025" xlink:href="#ef"/><linearGradient id="es" x1="2.952" y1="1.772" x2="3.024" y2="0.979" xlink:href="#ej"/><linearGradient id="et" x1="2.132" y1="0.997" x2="2.661" y2="1.106" xlink:href="#ek"/><linearGradient id="eu" x1="5.442" y1="1.722" x2="4.802" y2="1.574" xlink:href="#ef"/><linearGradient id="ev" x1="1.954" y1="1.004" x2="1.223" y2="0.838" xlink:href="#eh"/><linearGradient id="ew" x1="3.075" y1="1.536" x2="2.322" y2="1.362" gradientUnits="objectBoundingBox"><stop offset="0" stop-color="#9f9f9f"/><stop offset="1" stop-color="#bdbdbd"/></linearGradient><linearGradient id="ex" x1="4.883" y1="1.529" x2="5.298" y2="1.576" xlink:href="#ek"/><clipPath id="ey"><path class="a" d="M2714.472,1624.894l-2.2,6.289,13.308,4.768,2.23-6.472Z" transform="translate(-2712.273 -1624.894)"/></clipPath><clipPath id="ez"><path class="a" d="M2702.109,1620.919l-2.065,6.334-13.473-4.28,2.151-6.5Z" transform="translate(-2686.57 -1616.474)"/></clipPath><linearGradient id="fa" x1="5.457" y1="4.441" x2="5.517" y2="3.873" xlink:href="#j"/><linearGradient id="fb" x1="6.321" y1="1.507" x2="5.965" y2="1.46" xlink:href="#ef"/><linearGradient id="fc" x1="23.014" y1="0.147" x2="22.079" y2="0.023" gradientUnits="objectBoundingBox"><stop offset="0" stop-color="#185880"/><stop offset="1" stop-color="#2d76a4"/></linearGradient><linearGradient id="fd" x1="24.683" y1="0.088" x2="24.873" y2="0.355" gradientUnits="objectBoundingBox"><stop offset="0" stop-color="#b88759"/><stop offset="1" stop-color="#936439"/></linearGradient><linearGradient id="fe" x1="26.984" y1="-0.078" x2="26.866" y2="-0.708" xlink:href="#e"/><linearGradient id="ff" x1="36.408" y1="-1.404" x2="36.508" y2="-0.79" xlink:href="#b"/><linearGradient id="fg" x1="12.138" y1="-0.328" x2="11.701" y2="0.382" gradientUnits="objectBoundingBox"><stop offset="0" stop-color="#5a381b"/><stop offset="1" stop-color="#694424"/></linearGradient><linearGradient id="fh" x1="29.706" y1="0.308" x2="30.172" y2="-0.214" xlink:href="#f"/><linearGradient id="fi" x1="42.286" y1="-0.519" x2="41.637" y2="0.213" gradientUnits="objectBoundingBox"><stop offset="0" stop-color="#2a5b6b"/><stop offset="1" stop-color="#497e8f"/></linearGradient><clipPath id="fk"><path class="b" d="M2422.3,1603.983l-16.483-3.681-14.256,16.231,16.594,4.2Z" transform="translate(-2391.565 -1600.302)"/></clipPath><linearGradient id="fl" x1="17.858" y1="-0.176" x2="18.058" y2="0.528" gradientUnits="objectBoundingBox"><stop offset="0" stop-color="#85582f"/><stop offset="1" stop-color="#9c6a3c"/></linearGradient><linearGradient id="fm" x1="6.021" y1="-0.229" x2="6.06" y2="0.391" gradientUnits="objectBoundingBox"><stop offset="0" stop-color="#855730"/><stop offset="1" stop-color="#613f23"/></linearGradient><linearGradient id="fn" x1="12.338" y1="-0.086" x2="12.367" y2="0.241" xlink:href="#fg"/><linearGradient id="fo" x1="21.801" y1="-0.044" x2="21.567" y2="0.708" xlink:href="#c"/><clipPath id="fq"><path class="c" d="M2495.57,1691.426l3.422,73.341,27.83,3.157-2.545-70.491Z" transform="translate(-2495.57 -1691.426)"/></clipPath><clipPath id="fs"><path class="d" d="M2527.958,1767.787l21.632-12.625-1.95-67.312-22.227,9.445Z" transform="translate(-2525.413 -1687.851)"/></clipPath><linearGradient id="ft" x1="15.699" y1="-0.073" x2="15.725" y2="0.569" gradientUnits="objectBoundingBox"><stop offset="0" stop-color="#858585"/><stop offset="1" stop-color="#bababa"/></linearGradient><clipPath id="fv"><path class="e" d="M2494.052,1691.208l-15.406,74.22-22.9-4.815,13.781-74.922Z" transform="translate(-2455.745 -1685.691)"/></clipPath><linearGradient id="fw" x1="20.806" y1="-1.115" x2="20.864" y2="-0.407" gradientUnits="objectBoundingBox"><stop offset="0" stop-color="#7fbde6"/><stop offset="1" stop-color="#62a6d2"/></linearGradient><linearGradient id="fx" x1="32.105" y1="0.157" x2="31.987" y2="-0.495" gradientUnits="objectBoundingBox"><stop offset="0" stop-color="#4a90bd"/><stop offset="1" stop-color="#3177a3"/></linearGradient><linearGradient id="fy" x1="35.39" y1="-0.358" x2="35.886" y2="0.41" xlink:href="#ft"/><clipPath id="ga"><path class="f" d="M2470.665,1609.457l-3.739,73.759,54.25,13.086,3.011-67.331-34.985-2.578Z" transform="translate(-2466.926 -1609.457)"/></clipPath><linearGradient id="gb" x1="18.5" y1="0.359" x2="19.582" y2="0.359" xlink:href="#f"/><linearGradient id="gc" x1="17.325" y1="0.339" x2="16.803" y2="0.581" xlink:href="#a"/><linearGradient id="gd" x1="40.481" y1="-0.041" x2="41.158" y2="0.324" xlink:href="#e"/><linearGradient id="ge" x1="12.936" y1="-0.086" x2="13.204" y2="0.607" xlink:href="#fg"/><linearGradient id="gf" x1="10.418" y1="0.735" x2="10.7" y2="0.251" xlink:href="#fl"/><linearGradient id="gg" x1="17.288" y1="-0.098" x2="17.776" y2="0.244" xlink:href="#g"/><linearGradient id="gh" x1="22.376" y1="-0.474" x2="23.082" y2="0.028" gradientUnits="objectBoundingBox"><stop offset="0" stop-color="#659aab"/><stop offset="1" stop-color="#497e8f"/></linearGradient><linearGradient id="gi" x1="46.486" y1="-0.126" x2="46.072" y2="0.08" xlink:href="#b"/><linearGradient id="gj" x1="164.967" y1="0.642" x2="164.683" y2="-0.193" gradientUnits="objectBoundingBox"><stop offset="0" stop-color="#a1cddc"/><stop offset="1" stop-color="#73acbf"/></linearGradient><linearGradient id="gk" x1="90.834" y1="-1.313" x2="90.971" y2="-0.605" gradientUnits="objectBoundingBox"><stop offset="0" stop-color="#62a6d2"/><stop offset="1" stop-color="#2d76a4"/></linearGradient><linearGradient id="gl" x1="152.913" y1="0.568" x2="152.486" y2="-0.267" xlink:href="#gj"/><linearGradient id="gm" x1="84.216" y1="-1.157" x2="84.314" y2="-0.516" xlink:href="#gk"/><linearGradient id="gn" x1="10.443" y1="0.035" x2="9.887" y2="0.312" xlink:href="#e"/><clipPath id="gp"><path class="g" d="M2533.767,1624.14l46.371-18.96L2578.716,1619l-44.492,17.8Z" transform="translate(-2533.767 -1605.18)"/></clipPath><clipPath id="gr"><path class="h" d="M2530.8,1623.2a288.58,288.58,0,0,0-41.887-3.131c-4.408-5.028-9.569-9.111-14.761-14.186l1.922-1.207a142.415,142.415,0,0,1,15.165,13.478c13.6-1.6,22.948-.044,29.823-.191-10.393-8.982-42.293-21.207-57.6-20.257a65.788,65.788,0,0,0-7.549-5.16l36.994-11.935,84.268,23.629Z" transform="translate(-2455.91 -1580.615)"/></clipPath><clipPath id="gt"><path class="i" d="M2463.517,1603.041,2524.9,1618.5l2.97-64.034-62.388-15.028Z" transform="translate(-2463.517 -1539.435)"/></clipPath><clipPath id="gv"><path class="j" d="M2569.8,1602.43l-42.47,16.163,2.97-64.034,42.281-12.57Z" transform="translate(-2527.326 -1541.99)"/></clipPath><linearGradient id="gw" x1="9.225" y1="0.711" x2="9.119" y2="-0.078" gradientUnits="objectBoundingBox"><stop offset="0" stop-color="#855730"/><stop offset="1" stop-color="#9c704a"/></linearGradient><linearGradient id="gx" x1="107.222" y1="-0.074" x2="108.33" y2="-0.074" gradientUnits="objectBoundingBox"><stop offset="0" stop-color="#311e0e"/><stop offset="1" stop-color="#140c05"/></linearGradient><linearGradient id="gy" x1="164.828" y1="0.104" x2="166.087" y2="0.104" xlink:href="#gx"/><linearGradient id="gz" x1="14.393" y1="-0.043" x2="14.274" y2="0.684" gradientUnits="objectBoundingBox"><stop offset="0" stop-color="#2c1b0c"/><stop offset="1" stop-color="#432c18"/></linearGradient><linearGradient id="ha" x1="22.963" y1="0.157" x2="23.937" y2="0.157" xlink:href="#gz"/><linearGradient id="hb" x1="16.66" y1="-1.193" x2="16.682" y2="-0.429" xlink:href="#fm"/><linearGradient id="hc" x1="18.808" y1="0.241" x2="17.834" y2="0.183" xlink:href="#fc"/><linearGradient id="hd" x1="24.979" y1="0.267" x2="24.934" y2="-0.454" xlink:href="#fx"/><linearGradient id="he" x1="16.832" y1="-0.954" x2="16.87" y2="-0.337" xlink:href="#fw"/><clipPath id="hg"><path class="k" d="M2508.067,1595.026s1.513,10.669-7.963,10.5c-9.964-.173-8.714-9.981-8.714-9.981S2500.322,1597.386,2508.067,1595.026Z" transform="translate(-2491.34 -1595.026)"/></clipPath><linearGradient id="hh" x1="49.287" y1="-1.953" x2="49.295" y2="-1.301" gradientUnits="objectBoundingBox"><stop offset="0" stop-color="#e6777e"/><stop offset="1" stop-color="#c1505a"/></linearGradient><clipPath id="hi"><path class="a" d="M2521.106,1567.623l-.8,13.367-16.165-4.431.482-13.248Z" transform="translate(-2504.143 -1563.309)"/></clipPath><clipPath id="hj"><path class="a" d="M2488.309,1559.439l-.8,13.366-16.165-4.431.482-13.249Z" transform="translate(-2471.345 -1555.126)"/></clipPath><linearGradient id="hk" x1="35.547" y1="-0.306" x2="35.234" y2="-0.843" gradientUnits="objectBoundingBox"><stop offset="0" stop-color="#495915"/><stop offset="1" stop-color="#55671c"/></linearGradient><linearGradient id="hl" x1="18.855" y1="0.252" x2="18.704" y2="0.132" xlink:href="#hk"/><linearGradient id="hm" x1="-2.58" y1="0.717" x2="-1.955" y2="0.478" gradientUnits="objectBoundingBox"><stop offset="0" stop-color="#a17454"/><stop offset="1" stop-color="#bd8a68"/></linearGradient><linearGradient id="hn" x1="-8.033" y1="0.592" x2="-7.443" y2="0.433" gradientUnits="objectBoundingBox"><stop offset="0" stop-color="#624124"/><stop offset="1" stop-color="#4f3117"/></linearGradient><linearGradient id="ho" x1="-1.522" y1="0.917" x2="-1.161" y2="0.129" xlink:href="#hn"/><linearGradient id="hp" x1="-1.189" y1="0.385" x2="-0.66" y2="0.55" gradientUnits="objectBoundingBox"><stop offset="0" stop-color="#402813"/><stop offset="1" stop-color="#271608"/></linearGradient><linearGradient id="hq" x1="-1.937" y1="0.818" x2="-1.937" y2="0.273" gradientUnits="objectBoundingBox"><stop offset="0" stop-color="#53371e"/><stop offset="1" stop-color="#402813"/></linearGradient><linearGradient id="hr" x1="-1.046" y1="0.12" x2="-1.028" y2="0.87" gradientUnits="objectBoundingBox"><stop offset="0" stop-color="#785434"/><stop offset="1" stop-color="#a67250"/></linearGradient><linearGradient id="hs" x1="-0.93" y1="0.557" x2="-0.462" y2="0.446" xlink:href="#hq"/><linearGradient id="ht" x1="-1.389" y1="0.152" x2="-0.935" y2="0.903" xlink:href="#hm"/><linearGradient id="hu" x1="0.032" y1="0.49" x2="-0.89" y2="0.51" xlink:href="#ek"/><linearGradient id="hv" x1="0.14" y1="1.021" x2="0.044" y2="0.036" xlink:href="#ek"/><linearGradient id="hw" x1="-0.158" y1="1.04" x2="-0.062" y2="-0.033" xlink:href="#hr"/><linearGradient id="hx" x1="0.254" y1="0.503" x2="-0.676" y2="0.497" xlink:href="#eh"/><linearGradient id="hy" x1="-2.435" y1="0.436" x2="0.782" y2="0.845" xlink:href="#hq"/><linearGradient id="hz" x1="-1.86" y1="0.346" x2="-0.247" y2="0.563" xlink:href="#hq"/><linearGradient id="ia" x1="-0.975" y1="0.378" x2="-1.797" y2="0.579" xlink:href="#eh"/><linearGradient id="ib" x1="-2.947" y1="0.605" x2="-2.216" y2="0.38" xlink:href="#hm"/><linearGradient id="ic" x1="-4.927" y1="0.546" x2="-4.556" y2="0.473" xlink:href="#hn"/><linearGradient id="id" x1="-5.975" y1="0.741" x2="-6.08" y2="0.259" gradientUnits="objectBoundingBox"><stop offset="0" stop-color="#4f3117"/><stop offset="1" stop-color="#361f0b"/></linearGradient><linearGradient id="ie" x1="-0.377" y1="0.051" x2="-0.309" y2="0.687" xlink:href="#eg"/><linearGradient id="if" x1="-0.15" y1="0.373" x2="-0.819" y2="0.622" xlink:href="#ek"/><linearGradient id="ig" x1="-3.392" y1="0.916" x2="-1.747" y2="0.375" xlink:href="#hm"/><clipPath id="ih"><path class="a" d="M2364.755,1626.487l3.314,7.029,10.664-4.144-2.964-6.942Z" transform="translate(-2364.755 -1622.43)"/></clipPath><linearGradient id="ii" x1="-2.033" y1="0.583" x2="-0.595" y2="0.148" xlink:href="#hm"/><linearGradient id="ij" x1="-0.887" y1="0.321" x2="-1.582" y2="0.642" xlink:href="#ek"/><clipPath id="ik"><path class="a" d="M2338.753,1637.878l3.313,7.029,10.665-4.144-2.965-6.942Z" transform="translate(-2338.753 -1633.821)"/></clipPath><linearGradient id="il" x1="-3.336" y1="0.449" x2="-3.791" y2="0.574" xlink:href="#eh"/><linearGradient id="im" x1="-1.497" y1="0.293" x2="-1.364" y2="1.474" xlink:href="#eg"/><linearGradient id="in" x1="-4.146" y1="0.643" x2="-3.45" y2="0.35" xlink:href="#hm"/><linearGradient id="io" x1="-2.914" y1="0.639" x2="-2.354" y2="0.465" xlink:href="#hq"/></defs><g transform="translate(-549 -42.958)"><g transform="translate(525 38)"><g class="l" transform="translate(556.331 54.044)"><rect class="m" width="135.733" height="111.397" rx="6.427"/><text class="n" transform="translate(17.918 18.26)"><tspan x="0" y="0">function on_start() {</tspan><tspan x="0" y="18" xml:space="preserve">     while (has_path()) {</tspan><tspan x="0" y="36" xml:space="preserve">          forward();</tspan><tspan x="0" y="54" xml:space="preserve">     }</tspan><tspan x="0" y="72">}</tspan></text><text class="o" transform="translate(7.172 18.26)"><tspan x="0" y="0">1</tspan><tspan x="0" y="18">2</tspan><tspan x="0" y="36">3</tspan><tspan x="0" y="54">4</tspan><tspan x="0" y="72">5</tspan></text></g><g class="p" transform="translate(198.142 4.958)"><g transform="translate(29.032 157.817)"><path class="q" d="M2495.8,1620.648l-53.5,12.746-57.218-12.746,57.218-13.892Z" transform="translate(-2385.076 -1606.756)"/><path class="r" d="M2458.777,1732.777l53.5-12.866V1624.65l-53.5,12.746Z" transform="translate(-2401.559 -1610.758)"/><path class="s" d="M2442.295,1732.777l-57.218-12.866V1624.65l57.218,12.746Z" transform="translate(-2385.076 -1610.758)"/></g><g transform="translate(64.434 155.172)"><path class="t" d="M2439.7,1607.7l-1.193-.678-.049-2.167-1.445-.578v2.263l-1.444-.7v3.007l-1.589-1.011v-2.937l-1.252-.626v4.382l2.841,1.83v3.563l4.343,1.868Z" transform="translate(-2431.135 -1603.557)"/><path class="u" d="M2444.207,1614.664v.771l1.782-.337v-2.359l-1.156.193v-1.589l1.156-.193v-5.778l-1.156.193v3.659l-.722.1-.145-2.07-.915.144v2.359l-1.544.27-.045-5.278-1.108.193v3.852l-1.156.193-.048-4.815-1.156.145v1.445l-1.156.048-.048-2.456-1.252.1v1.348l-1.108.1.048,4.767-1.156.241-.1-.819-1.3.136-.052-3.17-1.2.193.113,5.682,1.331-.241.043,1.449-1.247.284.1,4.43,2.563-.629-.107-2.982,1.134-.191.237,2.881.987-.238-.1-4.041,1.011-.193.118,3.984Z" transform="translate(-2430.677 -1603.349)"/><path class="v" d="M2447.3,1619.225v-1.42l-1.353-.793,0-2.433,1.348.65v-3.3l-1.2-.722v-5.321l-1.035-.554-.027,2.376-1.036-.594-.005,1.919-2.289-1.1.213,8.22,1.206.676-.011-2.737.962.481.022,2.822Z" transform="translate(-2433.143 -1603.793)"/></g><g transform="translate(47.176 155.172)"><path class="w" d="M2417.083,1607.7l1.193-.678.048-2.167,1.445-.578v2.263l1.444-.7v3.007l1.589-1.011v-2.937l1.251-.626v4.382l-2.841,1.83v3.563l-4.343,1.868Z" transform="translate(-2410.332 -1603.557)"/><path class="x" d="M2410.229,1614.664v.771l-1.781-.337v-2.359l1.156.193v-1.589l-1.156-.193v-5.778l1.156.193v3.659l.722.1.145-2.07.915.144v2.359l1.544.27.045-5.278,1.107.193v3.852l1.156.193.048-4.815,1.156.145v1.445l1.156.048.048-2.456,1.252.1v1.348l1.107.1-.048,4.767,1.156.241.1-.819,1.3.136.052-3.17,1.2.193-.113,5.682-1.331-.241-.043,1.449,1.247.284-.1,4.43-2.563-.629.107-2.982-1.135-.191-.237,2.881-.987-.238.1-4.041-1.011-.193-.118,3.984Z" transform="translate(-2408.448 -1603.349)"/><path class="y" d="M2409.936,1619.225v-1.42l1.353-.793,0-2.433-1.348.65v-3.3l1.2-.722v-5.321l1.035-.554.027,2.376,1.036-.594.005,1.919,2.289-1.1-.213,8.22-1.206.676.011-2.737-.962.481-.022,2.822Z" transform="translate(-2408.781 -1603.793)"/></g><g transform="translate(116.596 155.172)"><path class="z" d="M2506.5,1607.7l1.193-.678.048-2.167,1.444-.578v2.263l1.445-.7v3.007l1.589-1.011v-2.937l1.252-.626v4.382l-2.841,1.83v3.563l-4.343,1.868Z" transform="translate(-2499.749 -1603.557)"/><path class="aa" d="M2499.647,1614.664v.771l-1.781-.337v-2.359l1.156.193v-1.589l-1.156-.193v-5.778l1.156.193v3.659l.722.1.145-2.07.915.144v2.359l1.544.27.045-5.278,1.108.193v3.852l1.156.193.048-4.815,1.156.145v1.445l1.156.048.048-2.456,1.252.1v1.348l1.108.1-.048,4.767,1.156.241.1-.819,1.3.136.053-3.17,1.2.193-.113,5.682-1.331-.241-.043,1.449,1.247.284-.1,4.43-2.563-.629.107-2.982-1.134-.191-.237,2.881-.987-.238.1-4.041-1.011-.193-.118,3.984Z" transform="translate(-2497.865 -1603.349)"/><path class="ab" d="M2499.354,1619.225v-1.42l1.353-.793,0-2.433-1.348.65v-3.3l1.2-.722v-5.321l1.035-.554.027,2.376,1.035-.594.006,1.919,2.289-1.1-.212,8.22-1.206.676.012-2.737-.962.481-.022,2.822Z" transform="translate(-2498.198 -1603.793)"/></g><g transform="translate(99.441 155.172)"><path class="t" d="M2484.787,1607.7l-1.193-.678-.048-2.167-1.445-.578v2.263l-1.445-.7v3.007l-1.589-1.011v-2.937l-1.252-.626v4.382l2.841,1.83v3.563l4.343,1.868Z" transform="translate(-2476.226 -1603.557)"/><path class="u" d="M2489.3,1614.664v.771l1.781-.337v-2.359l-1.156.193v-1.589l1.156-.193v-5.778l-1.156.193v3.659l-.722.1-.145-2.07-.915.144v2.359l-1.544.27-.045-5.278-1.107.193v3.852l-1.156.193-.048-4.815-1.156.145v1.445l-1.156.048-.048-2.456-1.252.1v1.348l-1.107.1.048,4.767-1.156.241-.1-.819-1.3.136-.052-3.17-1.2.193.114,5.682,1.331-.241.043,1.449-1.247.284.1,4.43,2.563-.629-.107-2.982,1.135-.191.237,2.881.987-.238-.1-4.041,1.011-.193.118,3.984Z" transform="translate(-2475.768 -1603.349)"/><path class="v" d="M2492.391,1619.225v-1.42l-1.353-.793.005-2.433,1.348.65v-3.3l-1.2-.722v-5.321l-1.035-.554-.027,2.376-1.035-.594-.006,1.919-2.289-1.1.212,8.22,1.206.676-.012-2.737.962.481.022,2.822Z" transform="translate(-2478.234 -1603.793)"/></g><path class="ac" d="M2454.02,1603.816l-16.515-3.956v-95.375l16.515,4.076Z" transform="translate(-2367.77 -1426.067)"/><path class="ad" d="M2458.777,1603.885l14.582-3.956v-95.136l-14.582,3.836Z" transform="translate(-2372.527 -1426.136)"/><path class="ae" d="M2452,1506.729V1486.14l-104.319-26.913v20.51Z" transform="translate(-2347.682 -1415.946)"/><path class="ae" d="M2409.278,1507.464v-20.589l-52.238-12.866v20.51Z" transform="translate(-2349.775 -1419.252)"/><path class="af" d="M2482.052,1510.464v-20.589l52.579-13.386V1497Z" transform="translate(-2377.732 -1419.806)"/><path class="af" d="M2424.325,1509.885V1489.3l17.628-4.464v20.51Z" transform="translate(-2364.823 -1421.672)"/><path class="ag" d="M2504.58,1469.118,2452,1482.5l-27.188-7.035-17.628,4.463-52.237-12.866,19.343-4.67-26.609-6.806,51.648-12.621Z" transform="translate(-2347.682 -1412.31)"/><path class="ah" d="M2484.28,1437.48l-51.531,13.513-52.237-12.866,51.648-12.542Z" transform="translate(-2355.024 -1408.422)"/><path class="ai" d="M2492.458,1412l-34.034,8.978-38.228-9.239,34.12-8.258Z" transform="translate(-2363.899 -1403.478)"/><path class="ae" d="M2432.748,1475.195v-20.589l-52.237-12.866v20.51Z" transform="translate(-2355.024 -1412.035)"/><path class="ae" d="M2458.425,1443.942v-20.589l-38.228-9.239v20.51Z" transform="translate(-2363.899 -1405.857)"/><path class="af" d="M2447.8,1469.092V1448.5l16.8-4.486v-20.589l34.034-8.978v41.211Z" transform="translate(-2370.072 -1405.932)"/><g transform="translate(93.299 165.504)"><path class="aj" d="M2477.385,1621.46l1.316-.748.053-2.391,1.594-.638v2.5l1.594-.768v3.318l1.753-1.116v-3.24l1.381-.691v4.834l-3.134,2.019v3.931l-4.792,2.061Z" transform="translate(-2469.935 -1616.887)"/><path class="ak" d="M2469.823,1629.141v.85l-1.966-.372v-2.6l1.275.213v-1.753l-1.275-.213v-6.375l1.275.213v4.037l.8.106.16-2.284,1.009.159v2.6l1.7.3.05-5.823,1.221.213v4.25l1.275.213.053-5.312,1.275.159v1.594l1.275.053.053-2.709,1.381.106v1.487l1.222.106-.053,5.259,1.275.266.106-.9,1.429.15.058-3.5,1.328.212-.125,6.269-1.469-.266-.047,1.6,1.376.314-.106,4.887-2.828-.694.118-3.29-1.252-.211-.261,3.178-1.089-.262.105-4.458-1.116-.213-.13,4.4Z" transform="translate(-2467.857 -1616.657)"/><path class="al" d="M2469.5,1634.173v-1.567l1.493-.875-.006-2.684-1.487.717v-3.639l1.328-.8v-5.87l1.142-.611.03,2.622,1.142-.655.006,2.117,2.526-1.21-.234,9.069-1.331.746.013-3.02-1.061.531-.025,3.114Z" transform="translate(-2468.225 -1617.147)"/></g><g transform="translate(74.373 165.504)"><path class="t" d="M2453.428,1621.46l-1.316-.748-.053-2.391-1.594-.638v2.5l-1.594-.768v3.318l-1.753-1.116v-3.24l-1.381-.691v4.834l3.135,2.019v3.931l4.791,2.061Z" transform="translate(-2443.984 -1616.887)"/><path class="u" d="M2458.406,1629.141v.85l1.966-.372v-2.6l-1.275.213v-1.753l1.275-.213v-6.375l-1.275.213v4.037l-.8.106-.159-2.284-1.009.159v2.6l-1.7.3-.05-5.823-1.222.213v4.25l-1.275.213-.053-5.312-1.275.159v1.594l-1.275.053-.053-2.709-1.381.106v1.487l-1.222.106.053,5.259-1.275.266-.106-.9-1.43.15-.058-3.5-1.328.212.125,6.269,1.469-.266.048,1.6-1.376.314.106,4.887,2.828-.694-.118-3.29,1.252-.211.261,3.178,1.089-.262-.105-4.458,1.115-.213.131,4.4Z" transform="translate(-2443.479 -1616.657)"/><path class="v" d="M2461.818,1634.173v-1.567l-1.493-.875.005-2.684,1.488.717v-3.639l-1.328-.8v-5.87l-1.142-.611-.03,2.622-1.142-.655-.006,2.117-2.526-1.21.234,9.069,1.331.746-.013-3.02,1.061.531.024,3.114Z" transform="translate(-2446.199 -1617.147)"/></g><g transform="translate(55.333 165.504)"><path class="am" d="M2428.481,1621.46l1.316-.748.053-2.391,1.594-.638v2.5l1.594-.768v3.318l1.753-1.116v-3.24l1.381-.691v4.834l-3.134,2.019v3.931l-4.791,2.061Z" transform="translate(-2421.032 -1616.887)"/><path class="an" d="M2420.919,1629.141v.85l-1.965-.372v-2.6l1.275.213v-1.753l-1.275-.213v-6.375l1.275.213v4.037l.8.106.159-2.284,1.01.159v2.6l1.7.3.05-5.823,1.222.213v4.25l1.275.213.053-5.312,1.275.159v1.594l1.275.053.053-2.709,1.381.106v1.487l1.222.106-.053,5.259,1.275.266.106-.9,1.429.15.058-3.5,1.328.212-.125,6.269-1.469-.266-.048,1.6,1.376.314-.106,4.887-2.828-.694.118-3.29-1.252-.211-.261,3.178-1.089-.262.105-4.458-1.116-.213-.13,4.4Z" transform="translate(-2418.954 -1616.657)"/><path class="ao" d="M2420.6,1634.173v-1.567l1.493-.875-.006-2.684-1.487.717v-3.639l1.328-.8v-5.87l1.142-.611.03,2.622,1.142-.655.006,2.117,2.526-1.21-.234,9.069-1.331.746.013-3.02-1.062.531-.024,3.114Z" transform="translate(-2419.322 -1617.147)"/></g></g><g class="l" transform="translate(473.307 109.447)"><g transform="translate(1.217 90.451)"><path class="q" d="M2860.222,1704.142l-35.947,8.563-38.442-8.563,38.442-9.333Z" transform="translate(-2785.833 -1694.809)"/><path class="ap" d="M2828.759,1757.751l35.947-8.644v-43.877l-35.947,8.563Z" transform="translate(-2790.317 -1695.897)"/><path class="aq" d="M2824.275,1757.751l-38.442-8.644v-43.877l38.442,8.563Z" transform="translate(-2785.833 -1695.897)"/></g><path class="ar" d="M2828.534,1702.082l-10.471-3.041v-40.149l10.471,2.484Z" transform="translate(-2787.984 -1600.606)"/><path class="as" d="M2838.858,1681.178l-10.471-3.041v-8.5l10.471,2.484Z" transform="translate(-2789.062 -1601.728)"/><path class="ar" d="M2818.211,1682.634l-10.471-3.041v-40.149l10.471,2.484Z" transform="translate(-2786.905 -1598.574)"/><path class="at" d="M2828.677,1671.451v-32.006l-9.245,2.484v40.705l9.245-3.041v20.457l9.245-3.041v-28.043Z" transform="translate(-2788.126 -1598.574)"/><path class="au" d="M2849.825,1601.6l-32.23,8.318-33.12-8.157,32.746-7.952Z" transform="translate(-2784.475 -1593.807)"/><path class="av" d="M2821.458,1641.39v-30.565l32.23-8.318v30.18Z" transform="translate(-2788.338 -1594.716)"/><path class="av" d="M2840.286,1661.266v-25.107l33.337-8.487v25.057Z" transform="translate(-2790.305 -1597.344)"/><path class="aw" d="M2817.595,1653.853v-43.009l-33.12-8.157v42.852Z" transform="translate(-2784.475 -1594.734)"/><path class="aw" d="M2836.423,1661.3V1636.2l-33.12-8.157v24.95Z" transform="translate(-2786.441 -1597.383)"/><path class="ax" d="M2869.76,1626.763l-33.337,8.487-33.12-8.157,33.852-8.122Z" transform="translate(-2786.441 -1596.435)"/><g transform="translate(30.127 95.5)"><path class="t" d="M2824.6,1703.583l-.885-.5-.036-1.607-1.071-.428v1.678l-1.071-.516v2.23l-1.178-.75v-2.178l-.928-.464v3.249l2.106,1.357v2.642l3.22,1.385Z" transform="translate(-2818.253 -1700.509)"/><path class="u" d="M2828.148,1708.837v.571l1.321-.25v-1.749l-.857.143v-1.178l.857-.143v-4.284l-.857.143v2.713l-.536.071-.107-1.535-.678.107v1.749l-1.145.2-.033-3.914-.821.143v2.856l-.857.143-.036-3.57-.857.107v1.071l-.857.036-.036-1.821-.928.071v1l-.821.072.036,3.535-.857.179-.072-.607-.961.1-.039-2.35-.893.143.084,4.213.987-.179.032,1.075-.925.211.071,3.285,1.9-.466-.079-2.211.841-.142.176,2.136.732-.176-.071-3,.75-.143.088,2.954Z" transform="translate(-2818.116 -1700.447)"/><path class="v" d="M2829.353,1712.023v-1.053l-1-.588,0-1.8,1,.482v-2.446l-.893-.536v-3.945l-.767-.411-.02,1.762-.768-.44,0,1.423-1.7-.813.157,6.095.894.5-.009-2.029.713.357.016,2.093Z" transform="translate(-2818.856 -1700.58)"/></g><g transform="translate(17.331 95.5)"><path class="ay" d="M2809.4,1703.583l.885-.5.036-1.607,1.071-.428v1.678l1.071-.516v2.23l1.178-.75v-2.178l.928-.464v3.249l-2.107,1.357v2.642l-3.22,1.385Z" transform="translate(-2804.393 -1700.509)"/><path class="az" d="M2805.148,1708.837v.571l-1.321-.25v-1.749l.857.143v-1.178l-.857-.143v-4.284l.857.143v2.713l.535.071.107-1.535.678.107v1.749l1.145.2.033-3.914.821.143v2.856l.857.143.036-3.57.857.107v1.071l.857.036.036-1.821.928.071v1l.821.072-.036,3.535.857.179.072-.607.961.1.039-2.35.893.143-.084,4.213-.987-.179-.032,1.075.925.211-.072,3.285-1.9-.466.079-2.211-.841-.142-.176,2.136-.732-.176.071-3-.75-.143-.088,2.954Z" transform="translate(-2803.827 -1700.447)"/><path class="ba" d="M2804.784,1712.023v-1.053l1-.588,0-1.8-1,.482v-2.446l.893-.536v-3.945l.768-.411.02,1.762.768-.44,0,1.423,1.7-.813-.157,6.095-.895.5.009-2.029-.713.357-.017,2.093Z" transform="translate(-2803.927 -1700.58)"/></g><g transform="translate(43.288 95.5)"><path class="bb" d="M2838.384,1703.583l.885-.5.036-1.607,1.071-.428v1.678l1.071-.516v2.23l1.178-.75v-2.178l.928-.464v3.249l-2.107,1.357v2.642l-3.22,1.385Z" transform="translate(-2833.378 -1700.509)"/><path class="bc" d="M2834.133,1708.837v.571l-1.321-.25v-1.749l.857.143v-1.178l-.857-.143v-4.284l.857.143v2.713l.536.071.107-1.535.678.107v1.749l1.145.2.033-3.914.821.143v2.856l.857.143.036-3.57.857.107v1.071l.857.036.036-1.821.928.071v1l.821.072-.036,3.535.857.179.072-.607.961.1.039-2.35.893.143-.084,4.213-.987-.179-.032,1.075.925.211-.071,3.285-1.9-.466.079-2.211-.841-.142-.176,2.136-.732-.176.071-3-.75-.143-.088,2.954Z" transform="translate(-2832.812 -1700.447)"/><path class="bd" d="M2833.769,1712.023v-1.053l1-.588,0-1.8-1,.482v-2.446l.893-.536v-3.945l.768-.411.02,1.762.768-.44,0,1.423,1.7-.813-.157,6.095-.895.5.009-2.029-.713.357-.016,2.093Z" transform="translate(-2832.912 -1700.58)"/></g></g><g class="l" transform="translate(24.359 172.776)"><g transform="translate(5.81 68.137)"><path class="be" d="M2084.185,1698.506l27.079,6.451,28.958-6.451-28.958-7.031Z" transform="translate(-2084.185 -1691.476)"/><path class="bf" d="M2111.263,1767.935l-27.079-6.511v-62.1l27.079,6.451Z" transform="translate(-2084.185 -1692.296)"/><path class="bg" d="M2114.422,1767.935l28.958-6.511v-62.1l-28.958,6.451Z" transform="translate(-2087.343 -1692.296)"/></g><path class="bh" d="M2113.671,1696.955l7.887-2.29V1664.42l-7.887,1.871Z" transform="translate(-2081.455 -1620.513)"/><path class="bi" d="M2105.895,1681.208l7.888-2.29v-6.4l-7.888,1.871Z" transform="translate(-2080.642 -1621.358)"/><path class="bj" d="M2121.448,1682.3l7.888-2.29V1649.77l-7.888,1.871Z" transform="translate(-2082.267 -1618.982)"/><path class="bk" d="M2112.859,1673.88v-24.11l6.964,1.871V1682.3l-6.964-2.29v15.41l-6.964-2.291v-21.125Z" transform="translate(-2080.642 -1618.982)"/><path class="bl" d="M2092.811,1621.26l24.279,6.266,24.949-6.145-24.668-5.99Z" transform="translate(-2079.275 -1615.391)"/><path class="bm" d="M2117.09,1651.235v-23.025l-24.279-6.266v22.735Z" transform="translate(-2079.275 -1616.076)"/><path class="bn" d="M2102.809,1666.208V1647.3L2077.7,1640.9v18.875Z" transform="translate(-2077.697 -1618.056)"/><path class="bo" d="M2119.922,1660.624v-32.4l24.949-6.145v32.281Z" transform="translate(-2082.107 -1616.09)"/><path class="bp" d="M2105.739,1666.238v-18.913l24.949-6.145v18.8Z" transform="translate(-2080.626 -1618.085)"/><path class="bq" d="M2077.7,1640.217l25.113,6.393,24.949-6.145-25.5-6.118Z" transform="translate(-2077.697 -1617.371)"/><g transform="translate(31.517 71.94)"><path class="br" d="M2117.086,1698.085l.667-.379.027-1.21.807-.323v1.264l.807-.389v1.68l.888-.565v-1.641l.7-.35v2.448l-1.587,1.022v1.99l-2.426,1.044Z" transform="translate(-2113.315 -1695.77)"/><path class="bs" d="M2113.885,1702.043v.43l-1-.188v-1.318l.646.108v-.888l-.646-.108v-3.227l.646.108V1699l.4.054.081-1.156.511.081v1.318l.863.151.025-2.948.619.108v2.152l.645.108.027-2.69.646.081v.807l.645.027.027-1.372.7.054v.753l.619.054-.027,2.663.645.135.054-.457.724.076.029-1.77.672.108-.063,3.174-.744-.135-.024.809.7.159-.054,2.474-1.431-.351.06-1.666-.634-.107-.132,1.609-.551-.133.053-2.257-.565-.108-.066,2.225Z" transform="translate(-2112.889 -1695.723)"/><path class="bt" d="M2113.61,1704.443v-.793l.756-.443,0-1.359-.753.363v-1.842l.672-.4v-2.972l.579-.309.015,1.327.579-.332,0,1.072,1.279-.613-.119,4.591-.674.378.007-1.529-.537.269-.012,1.577Z" transform="translate(-2112.965 -1695.823)"/></g><g transform="translate(41.156 71.94)"><path class="bu" d="M2128.538,1698.085l-.666-.379-.027-1.21-.807-.323v1.264l-.807-.389v1.68l-.887-.565v-1.641l-.7-.35v2.448l1.587,1.022v1.99l2.426,1.044Z" transform="translate(-2123.757 -1695.77)"/><path class="bv" d="M2131.211,1702.043v.43l1-.188v-1.318l-.646.108v-.888l.646-.108v-3.227l-.646.108V1699l-.4.054-.081-1.156-.511.081v1.318l-.862.151-.025-2.948-.618.108v2.152l-.646.108-.027-2.69-.645.081v.807l-.646.027-.027-1.372-.7.054v.753l-.618.054.027,2.663-.646.135-.054-.457-.724.076-.03-1.77-.672.108.063,3.174.743-.135.024.809-.7.159.054,2.474,1.432-.351-.06-1.666.634-.107.132,1.609.551-.133-.053-2.257.565-.108.066,2.225Z" transform="translate(-2123.653 -1695.723)"/><path class="bw" d="M2132.118,1704.443v-.793l-.756-.443,0-1.359.753.363v-1.842l-.672-.4v-2.972l-.578-.309-.015,1.327-.578-.332,0,1.072-1.279-.613.119,4.591.674.378-.007-1.529.537.269.012,1.577Z" transform="translate(-2124.211 -1695.823)"/></g><g transform="translate(21.602 71.94)"><path class="bx" d="M2106.7,1698.085l-.666-.379-.027-1.21-.807-.323v1.264l-.807-.389v1.68l-.887-.565v-1.641l-.7-.35v2.448l1.587,1.022v1.99l2.426,1.044Z" transform="translate(-2101.922 -1695.77)"/><path class="bv" d="M2109.376,1702.043v.43l.995-.188v-1.318l-.645.108v-.888l.645-.108v-3.227l-.645.108V1699l-.4.054-.081-1.156-.511.081v1.318l-.862.151-.025-2.948-.618.108v2.152l-.646.108-.027-2.69-.645.081v.807l-.646.027-.027-1.372-.7.054v.753l-.619.054.027,2.663-.646.135-.054-.457-.724.076-.029-1.77-.672.108.063,3.174.744-.135.024.809-.7.159.054,2.474,1.432-.351-.06-1.666.634-.107.132,1.609.551-.133-.053-2.257.565-.108.066,2.225Z" transform="translate(-2101.819 -1695.723)"/><path class="bw" d="M2110.283,1704.443v-.793l-.756-.443,0-1.359.753.363v-1.842l-.672-.4v-2.972l-.578-.309-.015,1.327-.578-.332,0,1.072-1.279-.613.119,4.591.674.378-.007-1.529.537.269.012,1.577Z" transform="translate(-2102.376 -1695.823)"/></g></g><g transform="translate(24 246.556)"><path class="by" d="M2507.251,1896.729l-171.1-98.766V1745.15l171.1,40.76Z" transform="translate(-2123.949 -1700.725)"/><path class="bz" d="M2527.209,1896.729l174.522-98.766V1745.15l-174.522,40.76Z" transform="translate(-2156.042 -1700.725)"/><path class="ca" d="M2756.013,1929.389l-171.1-41.143V1777.809l171.1,40.76Z" transform="translate(-2175.586 -1704.137)"/><path class="cb" d="M2775.971,1929.389l182.975-41.143V1777.809l-182.975,40.76Z" transform="translate(-2216.613 -1704.137)"/><g transform="translate(120.579 44.424)"><path class="cc" d="M2374.1,1896.729l-171.1-98.766V1745.15l171.1,40.76Z" transform="translate(-2203.006 -1745.15)"/><path class="cd" d="M2394.061,1918.569l90.012-16V1775.558l-90.012,15.558Z" transform="translate(-2250.974 -1766.989)"/></g><path class="ce" d="M2068.362,1739.968l155.525-44.424,56.64,15.129,52.964-15.129,56.011,14.96,52.375-14.96,46.974,12.547,43.926-12.547,277.92,73.672-166.321,40.76-155.525-40.76-46.974,11.512L2389.5,1767l-56.011,13.726-52.964-13.881-56.64,13.881Z" transform="translate(-2068.362 -1695.543)"/><path class="cf" d="M2223.887,1896.729H2068.362V1745.15l155.525,40.76Z" transform="translate(-2068.362 -1700.725)"/><path class="cg" d="M2259.418,1899.906l56.358-13.911V1775.558l-56.358,13.528Z" transform="translate(-2103.893 -1703.902)"/></g><g transform="translate(521.88 284.541)"><g transform="translate(158.064)"><path class="t" d="M2877.821,1753.131l-3.65-2.075-.147-6.628-4.419-1.768v6.923l-4.419-2.129v9.2l-4.861-3.093v-8.985l-3.83-1.915v13.4l8.69,5.6v10.9l13.285,5.715Z" transform="translate(-2851.635 -1740.451)"/><path class="u" d="M2892.458,1774.807v2.357l5.45-1.031v-7.217l-3.535.589v-4.861l3.535-.589v-17.675l-3.535.589v11.194l-2.209.295-.442-6.334-2.8.442v7.217l-4.723.827-.137-16.145-3.388.589v11.784l-3.535.589-.147-14.729-3.535.442v4.419l-3.535.147-.147-7.512-3.83.295v4.124l-3.388.295.147,14.582-3.535.736-.295-2.5-3.964.417-.161-9.7-3.683.589.347,17.383,4.072-.738.132,4.433-3.815.869.295,13.551,7.84-1.924-.328-9.123,3.471-.585.725,8.812,3.019-.727-.292-12.361,3.093-.589.362,12.188Z" transform="translate(-2851.068 -1740.193)"/><path class="v" d="M2897.427,1787.951v-4.345l-4.139-2.427.015-7.442,4.124,1.989v-10.09l-3.682-2.209V1747.15l-3.167-1.694-.082,7.27-3.167-1.816-.017,5.869-7-3.356.65,25.145,3.69,2.069-.036-8.373,2.942,1.472.068,8.634Z" transform="translate(-2854.122 -1740.743)"/></g><g transform="translate(105.271)"><path class="ch" d="M2815.1,1753.131l3.65-2.075.147-6.628,4.419-1.768v6.923l4.419-2.129v9.2l4.861-3.093v-8.985l3.83-1.915v13.4l-8.69,5.6v10.9l-13.285,5.715Z" transform="translate(-2794.45 -1740.451)"/><path class="ci" d="M2797.567,1774.807v2.357l-5.45-1.031v-7.217l3.535.589v-4.861l-3.535-.589v-17.675l3.535.589v11.194l2.209.295.442-6.334,2.8.442v7.217l4.723.827.137-16.145,3.388.589v11.784l3.535.589.147-14.729,3.535.442v4.419l3.535.147.147-7.512,3.83.295v4.124l3.388.295-.147,14.582,3.535.736.295-2.5,3.964.417.161-9.7,3.683.589-.347,17.383-4.072-.738-.132,4.433,3.814.869-.294,13.551-7.84-1.924.328-9.123-3.471-.585-.725,8.812-3.019-.727.292-12.361-3.093-.589-.362,12.188Z" transform="translate(-2792.117 -1740.193)"/><path class="cj" d="M2796.064,1787.951v-4.345l4.139-2.427-.015-7.442-4.124,1.989v-10.09l3.682-2.209V1747.15l3.167-1.694.082,7.27,3.167-1.816.017,5.869,7-3.356-.65,25.145-3.69,2.069.036-8.373-2.942,1.472-.068,8.634Z" transform="translate(-2792.529 -1740.743)"/></g><g transform="translate(52.793)"><path class="t" d="M2760.271,1753.131l-3.65-2.075-.147-6.628-4.419-1.768v6.923l-4.419-2.129v9.2l-4.861-3.093v-8.985l-3.83-1.915v13.4l8.69,5.6v10.9l13.285,5.715Z" transform="translate(-2734.084 -1740.451)"/><path class="u" d="M2774.907,1774.807v2.357l5.45-1.031v-7.217l-3.535.589v-4.861l3.535-.589v-17.675l-3.535.589v11.194l-2.209.295-.442-6.334-2.8.442v7.217l-4.723.827-.137-16.145-3.388.589v11.784l-3.535.589-.147-14.729-3.535.442v4.419l-3.535.147-.147-7.512-3.83.295v4.124l-3.388.295.147,14.582-3.535.736-.295-2.5-3.963.417-.161-9.7-3.682.589.346,17.383,4.073-.738.132,4.433-3.814.869.294,13.551,7.84-1.924-.328-9.123,3.471-.585.724,8.812,3.019-.727-.292-12.361,3.093-.589.362,12.188Z" transform="translate(-2733.518 -1740.193)"/><path class="v" d="M2779.877,1787.951v-4.345l-4.14-2.427.015-7.442,4.124,1.989v-10.09l-3.682-2.209V1747.15l-3.167-1.694-.082,7.27-3.167-1.816-.017,5.869-7-3.356.65,25.145,3.69,2.069-.036-8.373,2.942,1.472.068,8.634Z" transform="translate(-2736.572 -1740.743)"/></g><path class="ck" d="M2697.554,1753.131l3.65-2.075.147-6.628,4.419-1.768v6.923l4.419-2.129v9.2l4.861-3.093v-8.985l3.83-1.915v13.4l-8.69,5.6v10.9l-13.285,5.715Z" transform="translate(-2676.9 -1740.451)"/><path class="cl" d="M2680.017,1774.807v2.357l-5.45-1.031v-7.217l3.535.589v-4.861l-3.535-.589v-17.675l3.535.589v11.194l2.21.295.442-6.334,2.8.442v7.217l4.724.827.137-16.145,3.388.589v11.784l3.535.589.147-14.729,3.535.442v4.419l3.535.147.147-7.512,3.83.295v4.124l3.388.295-.147,14.582,3.535.736.294-2.5,3.963.417.161-9.7,3.682.589-.346,17.383-4.073-.738-.132,4.433,3.815.869-.294,13.551-7.84-1.924.328-9.123-3.471-.585-.724,8.812-3.019-.727.292-12.361-3.093-.589-.362,12.188Z" transform="translate(-2674.567 -1740.193)"/><path class="cm" d="M2678.514,1787.951v-4.345l4.139-2.427-.015-7.442-4.125,1.989v-10.09l3.683-2.209V1747.15l3.167-1.694.082,7.27,3.167-1.816.017,5.869,7-3.356-.65,25.145-3.69,2.069.036-8.373-2.943,1.472-.068,8.634Z" transform="translate(-2674.979 -1740.743)"/></g><g transform="translate(64.774 254.262)"><g transform="translate(143.904)"><path class="t" d="M2322.388,1720.394l-3.323-1.889-.134-6.034-4.023-1.609v6.3l-4.023-1.938v8.375l-4.425-2.816v-8.18l-3.487-1.743v12.2l7.912,5.1v9.923l12.1,5.2Z" transform="translate(-2298.548 -1708.85)"/><path class="u" d="M2335.714,1740.129v2.146l4.961-.939v-6.571l-3.218.536v-4.425l3.218-.536v-16.092l-3.218.536v10.192l-2.011.268-.4-5.766-2.548.4v6.571l-4.3.753-.125-14.7-3.084.536v10.728l-3.219.536-.134-13.41-3.218.4v4.023l-3.218.134-.134-6.839-3.487.268v3.755l-3.084.268.134,13.276-3.219.671-.268-2.28-3.609.379-.146-8.828-3.353.536.315,15.826,3.708-.672.12,4.036-3.473.791.268,12.337,7.138-1.752-.3-8.306,3.16-.533.659,8.023,2.749-.662-.266-11.253,2.816-.536.329,11.1Z" transform="translate(-2298.032 -1708.615)"/><path class="v" d="M2340.238,1752.095v-3.956l-3.769-2.21.014-6.775,3.755,1.81v-9.186l-3.353-2.011v-14.818l-2.883-1.542-.075,6.619-2.884-1.653-.016,5.343-6.376-3.055.592,22.893,3.359,1.884-.033-7.623,2.679,1.34.062,7.86Z" transform="translate(-2300.813 -1709.116)"/></g><g transform="translate(95.841)"><path class="cn" d="M2265.29,1720.394l3.323-1.889.134-6.034,4.023-1.609v6.3l4.023-1.938v8.375l4.425-2.816v-8.18l3.487-1.743v12.2l-7.912,5.1v9.923l-12.095,5.2Z" transform="translate(-2246.486 -1708.85)"/><path class="co" d="M2249.323,1740.129v2.146l-4.962-.939v-6.571l3.219.536v-4.425l-3.219-.536v-16.092l3.219.536v10.192l2.011.268.4-5.766,2.548.4v6.571l4.3.753.125-14.7,3.084.536v10.728l3.218.536.134-13.41,3.218.4v4.023l3.218.134.134-6.839,3.487.268v3.755l3.084.268-.134,13.276,3.219.671.268-2.28,3.608.379.146-8.828,3.353.536-.315,15.826-3.708-.672-.12,4.036,3.473.791-.268,12.337-7.138-1.752.3-8.306-3.16-.533-.66,8.023-2.749-.662.266-11.253-2.816-.536-.329,11.1Z" transform="translate(-2244.362 -1708.615)"/><path class="cp" d="M2247.956,1752.095v-3.956l3.768-2.21-.014-6.775-3.755,1.81v-9.186l3.352-2.011v-14.818l2.883-1.542.075,6.619,2.884-1.653.016,5.343,6.375-3.055-.592,22.893-3.359,1.884.033-7.623-2.679,1.34-.062,7.86Z" transform="translate(-2244.737 -1709.116)"/></g><g transform="translate(48.064)"><path class="t" d="M2215.368,1720.394l-3.323-1.889-.134-6.034-4.023-1.609v6.3l-4.023-1.938v8.375l-4.425-2.816v-8.18l-3.487-1.743v12.2l7.912,5.1v9.923l12.095,5.2Z" transform="translate(-2191.528 -1708.85)"/><path class="u" d="M2228.694,1740.129v2.146l4.962-.939v-6.571l-3.218.536v-4.425l3.218-.536v-16.092l-3.218.536v10.192l-2.012.268-.4-5.766-2.548.4v6.571l-4.3.753-.125-14.7-3.084.536v10.728l-3.219.536-.134-13.41-3.219.4v4.023l-3.218.134-.134-6.839-3.487.268v3.755l-3.084.268.134,13.276-3.218.671-.268-2.28-3.608.379-.146-8.828-3.352.536.315,15.826,3.708-.672.12,4.036-3.473.791.268,12.337,7.137-1.752-.3-8.306,3.16-.533.66,8.023,2.749-.662-.266-11.253,2.816-.536.33,11.1Z" transform="translate(-2191.012 -1708.615)"/><path class="v" d="M2233.219,1752.095v-3.956l-3.769-2.21.014-6.775,3.755,1.81v-9.186l-3.353-2.011v-14.818l-2.883-1.542-.074,6.619-2.884-1.653-.015,5.343-6.376-3.055.592,22.893,3.359,1.884-.033-7.623,2.679,1.34.062,7.86Z" transform="translate(-2193.793 -1709.116)"/></g><path class="cq" d="M2158.27,1720.394l3.323-1.889.134-6.034,4.023-1.609v6.3l4.023-1.938v8.375l4.426-2.816v-8.18l3.487-1.743v12.2l-7.912,5.1v9.923l-12.095,5.2Z" transform="translate(-2139.466 -1708.85)"/><path class="cr" d="M2142.3,1740.129v2.146l-4.962-.939v-6.571l3.218.536v-4.425l-3.218-.536v-16.092l3.218.536v10.192l2.011.268.4-5.766,2.548.4v6.571l4.3.753.125-14.7,3.084.536v10.728l3.219.536.134-13.41,3.218.4v4.023l3.219.134.134-6.839,3.487.268v3.755l3.084.268-.134,13.276,3.218.671.268-2.28,3.608.379.146-8.828,3.353.536-.315,15.826-3.707-.672-.121,4.036,3.473.791-.268,12.337-7.138-1.752.3-8.306-3.16-.533-.659,8.023-2.749-.662.266-11.253-2.816-.536-.329,11.1Z" transform="translate(-2137.342 -1708.615)"/><path class="cs" d="M2140.936,1752.095v-3.956l3.769-2.21-.014-6.775-3.755,1.81v-9.186l3.353-2.011v-14.818l2.883-1.542.075,6.619,2.884-1.653.016,5.343,6.375-3.055-.592,22.893-3.359,1.884.033-7.623-2.679,1.34-.062,7.86Z" transform="translate(-2137.717 -1709.116)"/></g><g transform="translate(282.161 244.858)"><g transform="translate(135.371)"><path class="t" d="M2557.509,1687.978l-3.126-1.777-.126-5.677-3.785-1.514v5.929l-3.784-1.823v7.879l-4.163-2.649v-7.7l-3.28-1.64v11.479l7.443,4.794v9.335l11.378,4.895Z" transform="translate(-2535.083 -1677.118)"/><path class="u" d="M2570.045,1706.542v2.019l4.667-.883V1701.5l-3.028.5v-4.163l3.028-.5V1682.2l-3.028.5v9.587l-1.892.252-.378-5.424-2.4.378v6.181l-4.045.708-.118-13.827-2.9.5v10.092l-3.028.5-.126-12.615-3.027.378v3.785l-3.028.126-.126-6.434-3.28.252v3.532l-2.9.252.126,12.489-3.028.631-.252-2.145-3.395.357-.138-8.3-3.154.5.3,14.887,3.487-.632.113,3.8-3.267.744.252,11.606,6.714-1.648-.281-7.813,2.973-.5.621,7.547,2.585-.623-.25-10.586,2.649-.5.31,10.438Z" transform="translate(-2534.597 -1676.897)"/><path class="v" d="M2574.3,1717.8v-3.721l-3.545-2.079.013-6.373,3.532,1.7v-8.641l-3.154-1.892v-13.939l-2.712-1.451-.07,6.226-2.713-1.555-.015,5.027-6-2.874.557,21.535,3.16,1.772-.031-7.171,2.52,1.261.058,7.394Z" transform="translate(-2537.213 -1677.368)"/></g><g transform="translate(90.158)"><path class="ct" d="M2503.8,1687.978l3.126-1.777.126-5.677,3.785-1.514v5.929l3.785-1.823v7.879l4.163-2.649v-7.7l3.28-1.64v11.479l-7.442,4.794v9.335l-11.378,4.895Z" transform="translate(-2486.108 -1677.118)"/><path class="cu" d="M2488.777,1706.542v2.019l-4.667-.883V1701.5l3.028.5v-4.163l-3.028-.5V1682.2l3.028.5v9.587l1.892.252.378-5.424,2.4.378v6.181l4.045.708.118-13.827,2.9.5v10.092l3.028.5.126-12.615,3.027.378v3.785l3.028.126.126-6.434,3.28.252v3.532l2.9.252-.126,12.489,3.028.631.252-2.145,3.394.357.138-8.3,3.154.5-.3,14.887-3.488-.632-.113,3.8,3.267.744-.252,11.606-6.715-1.648.281-7.813-2.973-.5-.62,7.547-2.586-.623.25-10.586-2.649-.5-.31,10.438Z" transform="translate(-2484.109 -1676.897)"/><path class="cv" d="M2487.49,1717.8v-3.721l3.545-2.079-.013-6.373-3.532,1.7v-8.641l3.154-1.892v-13.939l2.712-1.451.07,6.226,2.713-1.555.014,5.027,6-2.874-.557,21.535-3.16,1.772.031-7.171-2.52,1.261-.058,7.394Z" transform="translate(-2484.463 -1677.368)"/></g><g transform="translate(45.214)"><path class="t" d="M2456.835,1687.978l-3.126-1.777-.126-5.677-3.784-1.514v5.929l-3.784-1.823v7.879l-4.163-2.649v-7.7l-3.28-1.64v11.479l7.443,4.794v9.335l11.378,4.895Z" transform="translate(-2434.409 -1677.118)"/><path class="u" d="M2469.371,1706.542v2.019l4.667-.883V1701.5l-3.028.5v-4.163l3.028-.5V1682.2l-3.028.5v9.587l-1.892.252-.378-5.424-2.4.378v6.181l-4.045.708-.118-13.827-2.9.5v10.092l-3.027.5-.126-12.615-3.028.378v3.785l-3.028.126-.126-6.434-3.28.252v3.532l-2.9.252.126,12.489-3.027.631-.252-2.145-3.395.357-.138-8.3-3.154.5.3,14.887,3.488-.632.113,3.8-3.267.744.252,11.606,6.714-1.648-.281-7.813,2.973-.5.62,7.547,2.586-.623-.25-10.586,2.649-.5.31,10.438Z" transform="translate(-2433.923 -1676.897)"/><path class="v" d="M2473.627,1717.8v-3.721l-3.545-2.079.013-6.373,3.532,1.7v-8.641l-3.154-1.892v-13.939l-2.712-1.451-.07,6.226-2.713-1.555-.015,5.027-6-2.874.557,21.535,3.16,1.772-.031-7.171,2.52,1.261.058,7.394Z" transform="translate(-2436.539 -1677.368)"/></g><path class="cw" d="M2403.122,1687.978l3.126-1.777.126-5.677,3.784-1.514v5.929l3.784-1.823v7.879l4.163-2.649v-7.7l3.28-1.64v11.479l-7.443,4.794v9.335l-11.378,4.895Z" transform="translate(-2385.434 -1677.118)"/><path class="cx" d="M2388.1,1706.542v2.019l-4.667-.883V1701.5l3.028.5v-4.163l-3.028-.5V1682.2l3.028.5v9.587l1.892.252.378-5.424,2.4.378v6.181l4.045.708.117-13.827,2.9.5v10.092l3.028.5.126-12.615,3.028.378v3.785l3.028.126.126-6.434,3.28.252v3.532l2.9.252-.126,12.489,3.028.631.252-2.145,3.395.357.138-8.3,3.154.5-.3,14.887-3.488-.632-.113,3.8,3.267.744-.252,11.606-6.714-1.648.281-7.813-2.973-.5-.621,7.547-2.585-.623.25-10.586-2.649-.5-.31,10.438Z" transform="translate(-2383.436 -1676.897)"/><path class="cy" d="M2386.816,1717.8v-3.721l3.545-2.079-.013-6.373-3.532,1.7v-8.641l3.154-1.892v-13.939l2.712-1.451.07,6.226,2.712-1.555.015,5.027,6-2.874-.557,21.535-3.16,1.772.031-7.171-2.52,1.261-.058,7.394Z" transform="translate(-2383.789 -1677.368)"/></g><g transform="translate(125.982 86.419)"><g transform="translate(365.636 42.13)"><path class="cz" d="M2707.5,1585.413l4.915,2.57-5.925,15.953-5.042-1.227Z" transform="translate(-2611.005 -1579.854)"/><path d="M2687.555,1578.87l-5.819,17.249,16.745,5.606,6.052-17.3Z" transform="translate(-2608.041 -1578.87)"/><path class="da" d="M2713.444,1677.275l44.738-16.362-76.458-25.477-43.569,16.324Z" transform="translate(-2601.484 -1587.379)"/><path class="db" d="M2713.314,1680.166l.4,101.584-76.424-30.012.733-97.086Z" transform="translate(-2601.355 -1590.27)"/><path d="M2713.4,1680.166l-.012,29.894-75.506-25,.23-30.4Z" transform="translate(-2601.444 -1590.27)"/><path class="dc" d="M2666.761,1693.3l.013-29.894-26.069-18.3-5.138,29.041Z" transform="translate(-2601.095 -1588.833)"/><path class="dd" d="M2636.032,1643.846l-26.415-7.09-5.109,28.817,26.388,7.314Z" transform="translate(-2596.423 -1587.578)"/><path d="M2604.507,1670.676l28.357,16.79,29.225,9.678L2630.9,1677.99Z" transform="translate(-2596.423 -1592.681)"/><path d="M2713.7,1778.07l.02,17.809-76.424-30.012.169-17.292Z" transform="translate(-2601.355 -1604.399)"/><path class="de" d="M2726.775,1681.787l44.738-16.362-2.786,97.236-41.55,20.71Z" transform="translate(-2614.816 -1591.891)"/><path class="df" d="M2726.775,1683.816l13.4-4.9.3,6.234,13.905-5.026-.006,5.7,16.8-6.809-1.256,43.826-14.973,6.093-.31-5.1-6.119,1.384-.251-5.24-6.946,1.994-.086-5.808-7.062,1.98.036-6.816-7.322,2.4Z" transform="translate(-2614.816 -1593.92)"/><path class="dg" d="M2722.181,1771.168l.111,28.11a327.631,327.631,0,0,0-22.83,39.129l-5.162-23.47C2703.087,1793.787,2722.181,1771.168,2722.181,1771.168Z" transform="translate(-2609.93 -1607.798)"/><path class="dh" d="M2717.137,1769.21l-29.054-11.057s-19.359,22.581-27.314,39.525l28.488,15.3C2698.043,1791.829,2717.137,1769.21,2717.137,1769.21Z" transform="translate(-2604.886 -1605.84)"/><path d="M2689.255,1819.978l-28.487-15.3,6.823,23.8,26.827,14.972Z" transform="translate(-2604.886 -1612.839)"/><path class="di" d="M2661.194,1749.089l-30.284-10.947s-24.04,8.065-35.919,18.777l18.511,13.172S2634.627,1753.019,2661.194,1749.089Z" transform="translate(-2594.991 -1602.83)"/><path class="dj" d="M2664.472,1751.027l-.989,26.706s-17.272,3.688-39.91,20.589l-6.792-26.292S2637.25,1755.206,2664.472,1751.027Z" transform="translate(-2598.269 -1604.768)"/><path d="M2613.5,1773.417l-18.511-13.172,7.115,26.444,18.188,13.02Z" transform="translate(-2594.991 -1606.155)"/><path class="dk" d="M2727.245,1800.57l-.02-17.809,8.246-3,0,5.607,5.462-1.91.023,4.777,5.63-2.041-.128,4.8Z" transform="translate(-2614.884 -1609.09)"/><path class="dl" d="M2721.238,1711.337l.012-29.894-26.069-18.3-5.137,29.04Z" transform="translate(-2609.291 -1591.547)"/><path class="dm" d="M2690.508,1661.887l-26.415-7.09-5.11,28.816,26.387,7.314Z" transform="translate(-2604.617 -1590.292)"/><path d="M2658.983,1688.716l28.356,16.79,29.226,9.678-31.194-19.154Z" transform="translate(-2604.617 -1595.394)"/><path class="dn" d="M2724.532,1663.247l19.139-51.548,20.509,11.711-9.841,28.322Z" transform="translate(-2614.478 -1583.808)"/><path class="do" d="M2730.115,1653.954l7.1-19.12,6.3,3.412-1.894,5.209,5.06,2.372-3.161,9.129-5.169-2.507-1.879,5.17Z" transform="translate(-2615.318 -1587.289)"/><path class="dp" d="M2715.866,1660.306,2735,1608.758l-49.465-16.611-18.617,51.749Z" transform="translate(-2605.812 -1580.867)"/><path d="M2695.877,1633.139l6.073-18.983-5.7-1.838,1.267-4.687-9.013-3.146-1.532,4.708-5.137-1.521-6.849,19.04Z" transform="translate(-2607.025 -1582.723)"/><path d="M2728.615,1646.911l7.692-20.718-5.425-1.951,1.683-5.1-10.406-3.62-1.747,5.091-4.916-1.773-5.566,16.524,14.533,4.988-1.5,4.672Z" transform="translate(-2612.282 -1584.384)"/><path class="dq" d="M2697.667,1654.329l8.588-23.394-25.824-8.337-8.332,23.492Z" transform="translate(-2606.591 -1585.448)"/><path class="dr" d="M2702.195,1655.806l8.588-23.394,7.732,2.711-8.36,23.716Z" transform="translate(-2611.118 -1586.924)"/><g transform="translate(99.639 39.1)"><path class="a" d="M2714.472,1624.894l-2.2,6.289,13.308,4.768,2.23-6.472Z" transform="translate(-2712.273 -1624.894)"/><g class="ds"><path d="M2721.221,1626.128l-2.816,8.636-7.755-3.05,2.964-8.447Z" transform="translate(-2712.029 -1624.649)"/></g></g><g transform="translate(77.803 31.947)"><path class="a" d="M2702.109,1620.919l-2.065,6.334-13.473-4.28,2.151-6.5Z" transform="translate(-2686.57 -1616.474)"/><g class="dt"><path d="M2696.729,1618.1l-3,8.575,8.016,2.278,2.766-8.514Z" transform="translate(-2687.648 -1616.719)"/></g></g><line class="du" x1="1.815" y2="5.188" transform="translate(81.627 49.755)"/><path d="M2690.8,1625.567l-2.912,9.022,9.346,3.45,3.136-9.241Z" transform="translate(-2608.966 -1585.894)"/><path class="dv" d="M2681.677,1641.982s3.678,3.391,7.977,1.325a6.84,6.84,0,0,0,6.992,4.083s-2.289,4.779-8.992,2.426S2681.677,1641.982,2681.677,1641.982Z" transform="translate(-2608.028 -1588.364)"/><path d="M2744.6,1608.913l4.4-11.065,16.485,5.878-7.919,20.792-4.885-2.2,2.964-7.519-8.953-5.185Z" transform="translate(-2617.497 -1581.725)"/><path class="dw" d="M2767.778,1604.766l4.831,2.636-7.993,20.156-4.757-2Z" transform="translate(-2619.793 -1582.766)"/></g><g transform="translate(132.872 -61.952)"><path class="dx" d="M2499,1758.809l-3.036,14.914-30.238,16.051-.351-15.079Z" transform="translate(-2355.079 -1507.69)"/><path class="dy" d="M2468.524,1605.188l-16.189-3.63-16.84,15.513,8.852,10.024Z" transform="translate(-2353.94 -1501.699)"/><path class="dz" d="M2468.649,1605.188l-16.189-3.63-13.677,12.6,15.939,3.65Z" transform="translate(-2354.066 -1501.699)"/><path class="ea" d="M2457.832,1615.3l-16.078-3.605-6.259,5.766,15.926,3.615Z" transform="translate(-2353.94 -1502.085)"/><path class="eb" d="M2441.632,1655.517l37.815-34.271-11.94-15.959-24.177,21.906-20.368-23.064-14.146,16.746Z" transform="translate(-2352.924 -1501.797)"/><path class="ec" d="M2455.353,1617.951l13.927-12.619,11.94,15.959-13.784,12.644Z" transform="translate(-2354.697 -1501.843)"/><path class="ed" d="M2458.462,1615.44l-6.411,5.775,12.618,15.421,6.089-5.464Z" transform="translate(-2354.571 -1502.228)"/><g transform="translate(39.299 98.65)"><path class="b" d="M2422.3,1603.983l-16.483-3.681-14.256,16.231,16.594,4.2Z" transform="translate(-2391.565 -1600.302)"/><g class="ee"><path class="ef" d="M2400.872,1612.013l16.909-12.139,8.007,1.764L2408.3,1613.88Z" transform="translate(-2391.92 -1600.285)"/></g></g><path class="eg" d="M2440.974,1656.014l-16.483-3.681-32.926-35.157,16.594,4.2Z" transform="translate(-2352.267 -1502.294)"/><path class="eh" d="M2455.706,1526.943l39.392-13.355,80.437,16.391L2536,1543.09Z" transform="translate(-2354.71 -1498.347)"/><path class="ei" d="M2531.439,1624.142l-43.378-.1-15.4-18.81,54.618,14.419Z" transform="translate(-2355.356 -1501.839)"/><path class="ej" d="M2479.553,1765.646l19.987-9.4,13.6-63.232-18.185-1.584Z" transform="translate(-2355.619 -1505.123)"/><g transform="translate(139.341 186.303)"><path class="c" d="M2495.57,1691.426l3.422,73.341,27.83,3.157-2.545-70.491Z" transform="translate(-2495.57 -1691.426)"/><g class="ek"><path class="ef" d="M2512.556,1694.1l3.548,21.426,12.432,5.953,10.861-7.016,4.578-24.912,5.91-1.814-5.872,30.052-15.238,10.323-17.934-9.089-4.007-26.744Z" transform="translate(-2495.999 -1691.286)"/></g></g><g transform="translate(168.047 182.864)"><path class="d" d="M2527.958,1767.787l21.632-12.625-1.95-67.312-22.227,9.445Z" transform="translate(-2525.413 -1687.851)"/><g class="el"><path class="ef" d="M2512.556,1694.1l3.548,21.426,12.432,5.953,10.861-7.016,4.578-24.912,5.91-1.814-5.872,30.052-15.238,10.323-17.934-9.089-4.007-26.744Z" transform="translate(-2524.705 -1687.846)"/></g></g><path class="em" d="M2509.485,1694.213l3.548,21.426,12.432,5.953,10.861-7.016,4.578-24.912,5.91-1.814-5.872,30.052-15.238,10.323-17.934-9.089-4.006-26.744Z" transform="translate(-2356.541 -1504.987)"/><g transform="translate(101.033 180.787)"><path class="e" d="M2494.052,1691.208l-15.406,74.22-22.9-4.815,13.781-74.922Z" transform="translate(-2455.745 -1685.691)"/><g class="en"><path class="ef" d="M2484.675,1689.628c.168-.12-9.966,20.625-9.966,20.625l-11.644,5.542.957-6.01,7.857-4.018,7.939-17.672Z" transform="translate(-2456.023 -1685.783)"/></g></g><path class="eo" d="M2478.024,1768.4l-22.9-4.815-15.7,5.422,24.967,5.874Z" transform="translate(-2354.09 -1507.872)"/><path class="ep" d="M2464.387,1775.091l-24.967-5.874.329,15.033,24.989,5.92Z" transform="translate(-2354.09 -1508.087)"/><path class="eq" d="M2482.28,1688.383c.168-.12-9.967,20.626-9.967,20.626l-11.644,5.542.957-6.01,7.857-4.018,7.939-17.672Z" transform="translate(-2354.899 -1504.948)"/><g transform="translate(111.788 107.457)"><path class="f" d="M2470.665,1609.457l-3.739,73.759,54.25,13.086,3.011-67.331-34.985-2.578Z" transform="translate(-2466.926 -1609.457)"/><g class="er"><path class="ef" d="M2456.51,1609.655l-.5-13.747s18.985,11.609,33,27.524c0,0,28.983.4,41.886,3.13l.457,12.655c-4.278-1.077-12.134-2-20.007-2.73l.366,28.6,1.785.352-.154,7.887-8.033-1.781.072-7.709,1.866.369.285-28.057c-10.352-.875-19.716-1.377-19.716-1.377s-1.148-1.119-3.041-2.895l.1,26.814,1.782.352-.153,7.887-8.034-1.781.072-7.708,1.86.367.487-29.521C2473.861,1621.893,2463.093,1612.654,2456.51,1609.655Z" transform="translate(-2466.51 -1608.941)"/></g></g><path class="es" d="M2557.019,1619.176l-4.059,64.9-29.635,12.594,3.011-67.331Z" transform="translate(-2357.286 -1502.37)"/><path class="et" d="M2533.174,1635.019l35.65,43.181-23.918,33.514-12.057-14.77,13.836-20.186-14.6-18.766Z" transform="translate(-2357.62 -1502.974)"/><path class="eu" d="M2533.174,1635.019l14.509,17.574-8.483,14.547-7.118-9.148Z" transform="translate(-2357.62 -1502.974)"/><path class="ev" d="M2545.414,1713.108l23.918-33.514,21.559-7.981-24.278,33.527Z" transform="translate(-2358.128 -1504.368)"/><path class="ew" d="M2590.427,1669.916l-36.439-42.859-20.77,7.659,35.65,43.181Z" transform="translate(-2357.663 -1502.671)"/><path class="ex" d="M2568.632,1644.28l-14.644-17.224-20.77,7.659,14.509,17.574Z" transform="translate(-2357.663 -1502.671)"/><path class="ey" d="M2566.832,1642.179l-21.117,7.673,5.248,6.356,21.244-7.707Z" transform="translate(-2358.139 -1503.247)"/><path class="ez" d="M2537.121,1664.8l8.267-14.64,5.248,6.356-8.842,14.289Z" transform="translate(-2357.812 -1503.55)"/><path class="fa" d="M2482.993,1621.282l.142,39.383-4.5-.478.652-39.571Z" transform="translate(-2355.584 -1502.425)"/><path class="fb" d="M2484.838,1661.505l-8.114-1.6-.072,7.709,8.033,1.781Z" transform="translate(-2355.508 -1503.922)"/><path class="fc" d="M2511.108,1633.095l.442,34.4-4.5-.478.352-34.584Z" transform="translate(-2356.667 -1502.875)"/><path class="fd" d="M2513.24,1667.8l-8.114-1.6-.072,7.709,8.033,1.781Z" transform="translate(-2356.59 -1504.162)"/><path class="fe" d="M2530.8,1623.677l.457,12.654c-10.66-2.683-43.535-4.443-43.535-4.443s-20.9-20.373-31.316-25.118l-.5-13.746s18.985,11.608,33,27.523C2488.914,1620.546,2517.9,1620.941,2530.8,1623.677Z" transform="translate(-2354.718 -1501.374)"/><g transform="translate(176.083 103.343)"><path class="g" d="M2533.767,1624.14l46.371-18.96L2578.716,1619l-44.492,17.8Z" transform="translate(-2533.767 -1605.18)"/><g class="ff"><path class="ef" d="M2542.544,1615.988l10.676,17.834,30.819-12.557.973-23.5Z" transform="translate(-2534.102 -1604.897)"/></g></g><g transform="translate(101.192 79.714)"><path class="h" d="M2530.8,1623.2a288.58,288.58,0,0,0-41.887-3.131c-4.408-5.028-9.569-9.111-14.761-14.186l1.922-1.207a142.415,142.415,0,0,1,15.165,13.478c13.6-1.6,22.948-.044,29.823-.191-10.393-8.982-42.293-21.207-57.6-20.257a65.788,65.788,0,0,0-7.549-5.16l36.994-11.935,84.268,23.629Z" transform="translate(-2455.91 -1580.615)"/><g class="fg"><path class="ef" d="M2526.151,1620.452l16.006,2.123,45.706-17.346-23.551-6.986Z" transform="translate(-2458.586 -1581.286)"/></g></g><g transform="translate(108.51 40.102)"><path class="i" d="M2463.517,1603.041,2524.9,1618.5l2.97-64.034-62.388-15.028Z" transform="translate(-2463.517 -1539.435)"/><g class="fh"><path class="ef" d="M2479.97,1532.139l-18.486-2.214-.841,38.763,5.79,1.476,1.038-29.572,65.875,15.868-1.585,34.179,7.045,1.8,2.968-46.362-25.047-6.618-5.823-28.279-27.2-4.3Z" transform="translate(-2463.408 -1538.194)"/></g></g><g transform="translate(169.888 42.56)"><path class="j" d="M2569.8,1602.43l-42.47,16.163,2.97-64.034,42.281-12.57Z" transform="translate(-2527.326 -1541.99)"/><g class="fi"><path class="fj" d="M2458.238,1528.63l18.486,2.214,3.729-25.263,27.2,4.3,5.823,28.279,25.047,6.618,39.54-13.111-3.145,45.889-9.492,3.064-7.342-3.258,2.78-12.447-12.666,4-1.249,18.611-11.394,3.612-9.518-3.789,4.058-32.186-65.875-15.868-1.185,34.379-5.79-1.476Z" transform="translate(-2524.656 -1540.603)"/></g></g><path class="fk" d="M2474.153,1528.772l-18.486-2.214-.988,43.57,5.79,1.476,1.185-34.379,65.874,15.868-1.585,34.179,7.045,1.8,2.968-46.363-25.047-6.618-5.823-28.279-27.2-4.3Z" transform="translate(-2354.671 -1497.964)"/><path class="fl" d="M2567.446,1563.53l-.5,17.3-4.869-1.265.31-14.576Z" transform="translate(-2358.763 -1500.25)"/><path class="fm" d="M2465.37,1539.4l-.96,31.143-3.712,2.4,1.185-34.379Z" transform="translate(-2354.9 -1499.299)"/><path class="fn" d="M2539.058,1543.739l39.54-13.111-3.145,45.889-9.492,3.064.5-17.3-17.724,5.6-1.249,18.611-11.394,3.612Z" transform="translate(-2357.772 -1498.997)"/><path class="fo" d="M2512.906,1536.039l22.769-7.7-12.786-26.107-15.806,5.532Z" transform="translate(-2356.668 -1497.914)"/><path class="fp" d="M2521.812,1502.057l-15.805,5.532-27.2-4.3,16.178-5.546Z" transform="translate(-2355.59 -1497.744)"/><path class="fq" d="M2549.138,1757.828l-35.582,20.969.9,18.056,35.329-21.122Z" transform="translate(-2356.914 -1507.653)"/><path class="fr" d="M2512.444,1779.482l-28.082-3.679.536,17.8,28.445,3.935Z" transform="translate(-2355.802 -1508.338)"/><path class="fs" d="M2512.444,1779.172l-28.082-3.679,14.2-7.822,28.283,3.14Z" transform="translate(-2355.802 -1508.028)"/><path class="ft" d="M2480.888,1588.959s8.693,10.25,26.76,5.276" transform="translate(-2355.67 -1501.219)"/><path class="fu" d="M2480.959,1589.708a23.778,23.778,0,0,0,9.87,6.285" transform="translate(-2355.672 -1501.247)"/><g transform="translate(135.272 93.576)"><path class="k" d="M2508.067,1595.026s1.513,10.669-7.963,10.5c-9.964-.173-8.714-9.981-8.714-9.981S2500.322,1597.386,2508.067,1595.026Z" transform="translate(-2491.34 -1595.026)"/><g class="fv"><path class="fw" d="M2506.97,1605.7a8.572,8.572,0,0,0-7.01-4.308c-5.207-.479-7.362,4.827-7.362,4.827S2501.028,1609.968,2506.97,1605.7Z" transform="translate(-2491.388 -1595.267)"/></g></g><g transform="translate(147.587 63.068)"><path class="a" d="M2521.106,1567.623l-.8,13.367-16.165-4.431.482-13.248Z" transform="translate(-2504.143 -1563.309)"/><g class="fx"><path d="M2512.869,1569.917l-.8,13.366-16.165-4.431.482-13.249Z" transform="translate(-2503.829 -1563.397)"/></g></g><g transform="translate(116.039 55.196)"><path class="a" d="M2488.309,1559.439l-.8,13.366-16.165-4.431.482-13.249Z" transform="translate(-2471.345 -1555.126)"/><g class="fy"><path d="M2480.072,1561.733l-.8,13.366-16.166-4.431.482-13.248Z" transform="translate(-2471.032 -1555.213)"/></g></g><g transform="translate(0 55.961)"><path class="fz" d="M2358.3,1558.958l-6.466-1.782,5.081,5.513-6.209-1.3,5.739,6.008-4.923-1.156,4.829,5.188,18.192,5.145Z" transform="translate(-2350.71 -1555.969)"/><path class="ga" d="M2383.491,1561.817l3.586-3.111,7.322,8.583-4.549,4.638-3.659-4-2.667,2.585-2.495-2.517-3.125,2.888-10.094-10.528,4.217-3.906,4.093,4.454,3.822-3.068Z" transform="translate(-2351.362 -1555.941)"/><path class="gb" d="M2412.539,1606.077l-5.7,6.194-44.322-48.4,5.7-6.223Z" transform="translate(-2351.16 -1555.987)"/><path class="gc" d="M2399.116,1610.576l7.43,1.867-44.322-48.4-7.427-1.895Z" transform="translate(-2350.866 -1556.158)"/><path class="fz" d="M2367.926,1557.579l-5.7,6.223-7.427-1.895,5.865-5.986Z" transform="translate(-2350.866 -1555.921)"/><path class="fz" d="M2361.351,1582.124l-3.391,3.323,7.962,7.993,4.99-4.159-3.695-3.971,2.792-2.449-2.307-2.69,3.131-2.882-9.677-10.913-4.235,3.887,4.108,4.44-3.367,3.562Z" transform="translate(-2350.946 -1556.319)"/><path class="gc" d="M2376.739,1573.486l-9.77-10.531,6.787,1.782,3.592,4.165,6.137,1.539,4.439,4.668,6.736,1.2,6.329,6.839-10.968-1.662-2.666-3.2-3.974-.723-2.7-2.933Z" transform="translate(-2351.329 -1556.189)"/></g></g><g transform="translate(-25.302 63.174)"><path class="gd" d="M2362.544,1611.71l-3.905-8.241,15.146-5.477,7.4,16.469-4.669,1.691-3.725-8.279Z" transform="translate(-2207.951 -1597.993)"/><path class="ge" d="M2358.308,1603.958l-3.719,4.4,2.743,5.663,4.881-1.827Z" transform="translate(-2207.619 -1598.481)"/><path class="gf" d="M2240.566,1695.793l-17.905,48.911,19.11-8.072,14.292-36.243Z" transform="translate(-2196.825 -1605.995)"/><path class="gg" d="M2220.358,1744.111l-25.836-9.895,19.28-45.669,24.461,6.653Z" transform="translate(-2194.522 -1605.402)"/><path class="gh" d="M2342.528,1698.393l-25.385,8.311,11.243,30.14Z" transform="translate(-2204.555 -1606.208)"/><path class="gi" d="M2343.265,1697.958l-17.111,46.523,22.581-5.662,17.666-45.75Z" transform="translate(-2205.292 -1605.772)"/><path class="gj" d="M2262.372,1701.086l20,56.449,32.053,6.748-18.316-53.743Z" transform="translate(-2200.074 -1606.428)"/><path class="gk" d="M2318.235,1704.528l17.516,49.429-18.316,10.606-18.316-53.743Z" transform="translate(-2203.081 -1606.71)"/><path class="gl" d="M2299.119,1645.471l2.169,63.153,62.9-21.214-1.064-63.5Z" transform="translate(-2203.081 -1600.113)"/><path class="gm" d="M2291.624,1644.231l-84.109-19.206,68.2-16.27,79.912,13.915Z" transform="translate(-2195.586 -1598.873)"/><path class="gn" d="M2284.777,1642.482l-38.625-8.82,67.328-18.346,34.946,6.085Z" transform="translate(-2198.747 -1599.41)"/><path class="go" d="M2291.624,1645.681l-84.109-19.206,2.651,58.312,83.627,24.047Z" transform="translate(-2195.586 -1600.323)"/><path class="gp" d="M2213.765,1655.641l-4.973-1.083,1.479,32.526,23.99,6.9v-6.53l-5.071-1.567-.241-5.3-5.422-1.687-.241-5.9-4.82-1.2v-9l-4.459-1.238Z" transform="translate(-2195.69 -1602.621)"/><path class="gq" d="M2284.777,1644.117l-38.625-8.82V1649l4.651,1.446.121,14.219,5.543,1.446v11.447l5.05,1.365-.11,5.865,5.422,1.446-.241,6.507,4.965,1.446v8.06l25.4,7.3-1.176-34.229-4.969-1.258-.723-12.773-4.579-1.084Z" transform="translate(-2198.747 -1601.045)"/><path class="gr" d="M2311.485,1641.813l2.624,53.125,33.258-24.8-20.606-44.188Z" transform="translate(-2204.092 -1600.28)"/><path class="gs" d="M2322.736,1629.268l3.535,9.159-5.624,1.8-7.792-20.681,15.831-5.528,3.61,8.982-5.423,1.969Z" transform="translate(-2204.205 -1599.304)"/><path class="gt" d="M2320.282,1640.722l-7.792-20.681-4.1,5.422,8.033,20.9Z" transform="translate(-2203.839 -1599.797)"/><path class="gu" d="M2321,1642.4l-3.856,5.638,6.105-2.337,3.374-5.1Z" transform="translate(-2204.555 -1601.479)"/><path class="gv" d="M2357.722,1684.465l-43.38,12.989,33.258-24.8,41.38-15.951Z" transform="translate(-2204.326 -1602.796)"/><path class="gw" d="M2390.107,1652.777l-41.38,15.951-20.605-44.188,42.175-15.785Z" transform="translate(-2205.454 -1598.873)"/><path class="gx" d="M2384.752,1635.619l-17.3,6.4-7.456-17.064,4.16-1.75-2.127-4.583,8.911-3.307,2.295,4.54,3.787-1.425Z" transform="translate(-2208.061 -1599.41)"/><g transform="translate(156.304 22.438)"><path class="a" d="M2364.755,1626.487l3.314,7.029,10.664-4.144-2.964-6.942Z" transform="translate(-2364.755 -1622.43)"/><g class="gy"><path d="M2363.582,1626.117l4.177,9.057,6.667-2.658-4.258-8.669Z" transform="translate(-2364.659 -1622.546)"/></g></g><path class="gz" d="M2360.841,1644.567l-14.336,5.806,2.181,5.056-5.342,2.268-10.829-23.224,4.994-1.7-2-4.635,10.363-3.667,2.012,4.773,4.977-1.693Z" transform="translate(-2205.813 -1600.159)"/><path class="ha" d="M2392.033,1648.517l-25.346,10.112-10.028-22.165,25.921-9.367Z" transform="translate(-2207.789 -1600.374)"/><g transform="translate(132.429 32.896)"><path class="a" d="M2338.753,1637.878l3.313,7.029,10.665-4.144-2.965-6.942Z" transform="translate(-2338.753 -1633.821)"/><g class="hb"><path d="M2344.44,1634.473l4.178,9.057,6.667-2.658-4.257-8.669Z" transform="translate(-2339.218 -1633.688)"/></g></g><path class="hc" d="M2360.2,1667.354l6-7.89-10.027-22.165-5.428,8.435Z" transform="translate(-2207.304 -1601.209)"/><path class="hd" d="M2361.042,1668.429l6-7.89,25.345-10.112-7.44,8.815Z" transform="translate(-2208.147 -1602.283)"/><path class="he" d="M2375.134,1640.864s6.507,10.443-4.1,10.765" transform="translate(-2208.965 -1601.5)"/><path class="hf" d="M2379.988,1638.9l-10.463,3.992-3.966-9.14,10.362-3.744Z" transform="translate(-2208.517 -1600.612)"/><path class="he" d="M2377.233,1644.823s4.433,6.929,9.333,0" transform="translate(-2209.472 -1601.825)"/><path class="hg" d="M2335.215,1642.889l-6.571,3.2,2.831,5.828-5.321,2.447,6.667,13.476,5.421-2.466,2.13,4.736,6.141-2.992Z" transform="translate(-2205.292 -1601.666)"/></g></g><g class="l" transform="translate(75.748 52.54)"><path class="m" d="M2248.534,1502.5h-66.34a1.4,1.4,0,0,1-1.4-1.4h0a3.246,3.246,0,0,0-3.247-3.246h-12.075a3.247,3.247,0,0,0-3.247,3.246h0a1.4,1.4,0,0,1-1.4,1.4h-3.25a4.638,4.638,0,0,1-4.639-4.638v-26.435a4.638,4.638,0,0,1,4.639-4.638h3.25a1.4,1.4,0,0,0,1.4-1.4h0a3.247,3.247,0,0,1,3.247-3.247h12.075a3.247,3.247,0,0,1,3.247,3.247h0a1.4,1.4,0,0,0,1.4,1.4H2232.3a20.872,20.872,0,0,1,20.873,20.872v10.2A4.638,4.638,0,0,1,2248.534,1502.5Z" transform="translate(-2152.946 -1462.147)"/><text class="n" transform="translate(8.971 24.659)"><tspan x="0" y="0">on start</tspan></text><g transform="translate(0 37.142)"><path class="m" d="M2246.208,1543.975h-64.014a1.4,1.4,0,0,1-1.4-1.4h0a3.247,3.247,0,0,0-3.247-3.247h-12.075a3.247,3.247,0,0,0-3.247,3.247h0a1.4,1.4,0,0,1-1.4,1.4h-.924a6.964,6.964,0,0,1-6.964-6.964v-21.784a6.965,6.965,0,0,1,6.964-6.965h.924a1.4,1.4,0,0,0,1.4-1.4h0a3.247,3.247,0,0,1,3.247-3.246h12.075a3.246,3.246,0,0,1,3.247,3.246h0a1.4,1.4,0,0,0,1.4,1.4h64.014a6.965,6.965,0,0,1,6.964,6.965v21.784A6.965,6.965,0,0,1,2246.208,1543.975Z" transform="translate(-2152.946 -1503.621)"/><text class="n" transform="translate(8.971 24.658)"><tspan x="0" y="0">learn to code</tspan></text></g><g transform="translate(0 74.05)"><path class="m" d="M2246.208,1585.189h-64.014a1.4,1.4,0,0,1-1.4-1.4h0a3.246,3.246,0,0,0-3.247-3.246h-12.075a3.247,3.247,0,0,0-3.247,3.246h0a1.4,1.4,0,0,1-1.4,1.4h-.924a6.964,6.964,0,0,1-6.964-6.964v-21.784a6.964,6.964,0,0,1,6.964-6.964h.924a1.4,1.4,0,0,0,1.4-1.4h0a3.247,3.247,0,0,1,3.247-3.247h12.075a3.247,3.247,0,0,1,3.247,3.247h0a1.4,1.4,0,0,0,1.4,1.4h64.014a6.964,6.964,0,0,1,6.964,6.964v21.784A6.964,6.964,0,0,1,2246.208,1585.189Z" transform="translate(-2152.946 -1544.835)"/><text class="n" transform="translate(8.971 24.659)"><tspan x="0" y="0">create anything</tspan></text></g></g><g class="hh" transform="translate(198.287 102.682)"><path class="hi" d="M2310.248,1524.314l-5.8-5.809a1.25,1.25,0,0,0-2.135.884v2.639h-2.061a.938.938,0,0,0-.937.938v4.376a.938.938,0,0,0,.938.938h2.061v2.724a1.25,1.25,0,0,0,2.135.884l5.8-5.807A1.25,1.25,0,0,0,2310.248,1524.314Z" transform="translate(-2290.774 -1518.137)"/><rect class="hi" width="3.673" height="6.252" rx="1.047" transform="translate(3.847 3.892)"/><rect class="hi" width="2.831" height="6.252" rx="1.047" transform="translate(0 3.892)"/></g><g class="hh" transform="translate(503.2 102.682)"><path class="hi" d="M2622.812,1524.314l-5.8-5.809a1.251,1.251,0,0,0-2.135.884v2.639h-2.061a.938.938,0,0,0-.937.938v4.376a.938.938,0,0,0,.938.938h2.061v2.724a1.251,1.251,0,0,0,2.135.884l5.8-5.807A1.25,1.25,0,0,0,2622.812,1524.314Z" transform="translate(-2603.338 -1518.137)"/><rect class="hi" width="3.673" height="6.252" rx="1.047" transform="translate(3.847 3.892)"/><rect class="hi" width="2.831" height="6.252" rx="1.047" transform="translate(0 3.892)"/></g></g></g></svg>